<svg width="104" height="29" viewBox="0 0 104 29" fill="none" xmlns="http://www.w3.org/2000/svg">
<path d="M12.168 20.792C12.264 21.056 12.24 21.332 12.096 21.62C11.952 21.884 11.748 22.076 11.484 22.196L11.268 22.268C11.004 22.364 10.668 22.472 10.26 22.592C9.852 22.712 9.504 22.808 9.216 22.88L8.712 22.988C8.424 23.06 8.076 23.168 7.668 23.312C7.284 23.432 6.96 23.552 6.696 23.672L6.3 23.852C6.036 23.972 5.7 24.104 5.292 24.248C4.908 24.392 4.572 24.5 4.284 24.572L3.888 24.716C3.624 24.788 3.288 24.884 2.88 25.004C2.472 25.124 2.124 25.232 1.836 25.328L1.26 25.508C0.972 25.604 0.756 25.58 0.612 25.436C0.468 25.292 0.444 25.076 0.54 24.788L0.72 24.284C0.816 23.996 0.924 23.648 1.044 23.24C1.164 22.832 1.284 22.496 1.404 22.232L1.584 21.692C1.68 21.404 1.788 21.068 1.908 20.684C2.028 20.276 2.136 19.928 2.232 19.64L2.412 19.1C2.508 18.812 2.616 18.476 2.736 18.092C2.88 17.684 3.012 17.336 3.132 17.048L3.348 16.58C3.468 16.292 3.588 15.956 3.708 15.572C3.828 15.164 3.924 14.816 3.996 14.528L4.176 13.88C4.248 13.592 4.332 13.244 4.428 12.836C4.548 12.428 4.656 12.092 4.752 11.828L4.968 11.18C5.064 10.916 5.184 10.58 5.328 10.172C5.472 9.764 5.604 9.428 5.724 9.164L5.94 8.588C6.06 8.324 6.192 8 6.336 7.616C6.48 7.208 6.6 6.86 6.696 6.572L6.876 5.996C6.972 5.708 7.068 5.372 7.164 4.988C7.284 4.58 7.392 4.244 7.488 3.98C7.584 3.716 7.692 3.392 7.812 3.008C7.932 2.6 8.028 2.252 8.1 1.964C8.196 1.676 8.316 1.532 8.46 1.532C8.628 1.508 8.772 1.628 8.892 1.892L9 2.108C9.12 2.372 9.264 2.708 9.432 3.116C9.6 3.5 9.744 3.824 9.864 4.088L10.044 4.556C10.164 4.82 10.308 5.144 10.476 5.528C10.668 5.888 10.848 6.2 11.016 6.464L11.232 6.824C11.376 7.088 11.544 7.412 11.736 7.796C11.928 8.156 12.084 8.468 12.204 8.732L12.42 9.2C12.54 9.464 12.684 9.8 12.852 10.208C13.044 10.592 13.2 10.916 13.32 11.18L13.5 11.648C13.62 11.912 13.776 12.236 13.968 12.62C14.16 13.004 14.316 13.328 14.436 13.592L14.616 13.988C14.736 14.252 14.88 14.588 15.048 14.996C15.216 15.38 15.36 15.704 15.48 15.968L15.696 16.472C15.816 16.736 15.96 17.06 16.128 17.444C16.32 17.828 16.476 18.152 16.596 18.416L16.776 18.884C16.896 19.148 17.04 19.484 17.208 19.892C17.4 20.276 17.556 20.6 17.676 20.864L17.892 21.332C18.012 21.596 18.156 21.932 18.324 22.34C18.516 22.724 18.684 23.048 18.828 23.312L19.044 23.78C19.164 24.044 19.32 24.368 19.512 24.752C19.704 25.136 19.86 25.46 19.98 25.724L20.16 26.12C20.28 26.384 20.28 26.66 20.16 26.948C20.064 27.212 19.884 27.404 19.62 27.524L18.612 27.992C18.348 28.112 18.072 28.124 17.784 28.028C17.496 27.932 17.28 27.752 17.136 27.488V27.452C16.992 27.188 16.824 26.864 16.632 26.48C16.44 26.096 16.284 25.772 16.164 25.508L16.02 25.184C15.876 24.92 15.72 24.596 15.552 24.212C15.408 23.828 15.276 23.492 15.156 23.204L15.012 22.844C14.892 22.58 14.748 22.256 14.58 21.872C14.412 21.464 14.268 21.128 14.148 20.864L13.932 20.468C13.812 20.204 13.656 19.88 13.464 19.496C13.296 19.112 13.152 18.788 13.032 18.524L12.852 18.092C12.732 17.828 12.576 17.504 12.384 17.12C12.216 16.736 12.06 16.412 11.916 16.148L11.664 15.716C11.52 15.452 11.34 15.128 11.124 14.744C10.932 14.36 10.776 14.036 10.656 13.772L10.476 13.376C10.356 13.112 10.212 12.788 10.044 12.404C9.876 12.02 9.732 11.696 9.612 11.432L9.396 10.964C9.276 10.7 9.144 10.568 9 10.568C8.88 10.568 8.772 10.712 8.676 11L8.532 11.576C8.436 11.864 8.328 12.212 8.208 12.62C8.088 13.028 7.98 13.364 7.884 13.628L7.704 14.204C7.584 14.492 7.464 14.84 7.344 15.248C7.224 15.656 7.116 15.992 7.02 16.256L6.84 16.868C6.744 17.156 6.636 17.504 6.516 17.912C6.396 18.296 6.276 18.632 6.156 18.92L5.94 19.46C5.844 19.748 5.856 19.964 5.976 20.108C6.12 20.252 6.336 20.276 6.624 20.18L7.452 19.964C7.74 19.868 8.088 19.76 8.496 19.64C8.904 19.52 9.24 19.412 9.504 19.316L10.512 18.992C10.8 18.872 11.064 18.884 11.304 19.028C11.568 19.172 11.748 19.388 11.844 19.676L12.168 20.792ZM25.6708 2.648C25.9588 2.768 26.3068 2.888 26.7148 3.008C27.1228 3.128 27.4588 3.236 27.7228 3.332L28.3708 3.512C28.6588 3.608 28.9948 3.728 29.3788 3.872C29.7868 3.992 30.1228 4.112 30.3868 4.232L31.1788 4.52C31.4668 4.64 31.6708 4.832 31.7908 5.096C31.9108 5.36 31.9108 5.636 31.7908 5.924L31.3588 7.076C31.2388 7.364 31.0348 7.58 30.7468 7.724C30.4828 7.844 30.2068 7.856 29.9188 7.76L29.5228 7.616C29.2348 7.52 28.8868 7.4 28.4788 7.256C28.0948 7.112 27.7588 6.992 27.4708 6.896L26.7868 6.644C26.5228 6.524 26.2948 6.536 26.1028 6.68C25.9108 6.824 25.8148 7.04 25.8148 7.328L25.8508 7.724C25.8508 8.012 25.8508 8.372 25.8508 8.804C25.8748 9.212 25.8868 9.572 25.8868 9.884L25.9228 10.244C25.9228 10.532 25.9228 10.892 25.9228 11.324C25.9228 11.732 25.9108 12.092 25.8868 12.404V12.8C25.8628 13.112 25.8508 13.484 25.8508 13.916C25.8508 14.324 25.8628 14.672 25.8868 14.96V15.464C25.8868 15.752 25.8868 16.112 25.8868 16.544C25.8868 16.952 25.8748 17.312 25.8508 17.624L25.8148 18.128C25.8148 18.44 25.8148 18.8 25.8148 19.208C25.8148 19.616 25.8268 19.976 25.8508 20.288L25.8868 20.756C25.9108 21.044 25.9108 21.404 25.8868 21.836C25.8868 22.244 25.8748 22.604 25.8508 22.916L25.8148 23.42C25.7908 23.732 25.7668 24.104 25.7428 24.536C25.7428 24.944 25.7548 25.292 25.7788 25.58V26.084C25.8028 26.372 25.7068 26.624 25.4908 26.84C25.2988 27.056 25.0468 27.164 24.7348 27.164L23.5108 27.2C23.2228 27.224 22.9708 27.128 22.7548 26.912C22.5388 26.696 22.4308 26.444 22.4308 26.156V25.796V23.636V23.132C22.4068 22.844 22.3948 22.496 22.3948 22.088C22.3948 21.656 22.4068 21.284 22.4308 20.972V20.576C22.4548 20.288 22.4668 19.94 22.4668 19.532C22.4668 19.1 22.4788 18.728 22.5028 18.416L22.5388 17.948C22.5388 17.636 22.5388 17.276 22.5388 16.868C22.5388 16.436 22.5268 16.076 22.5028 15.788L22.4668 15.284C22.4428 14.972 22.4308 14.612 22.4308 14.204C22.4308 13.772 22.4428 13.412 22.4668 13.124L22.5028 12.656C22.5268 12.368 22.5388 12.02 22.5388 11.612C22.5388 11.18 22.5268 10.808 22.5028 10.496V9.992C22.4788 9.68 22.4548 9.32 22.4308 8.912C22.4308 8.48 22.4428 8.12 22.4668 7.832V7.328C22.4908 7.016 22.3948 6.788 22.1788 6.644C21.9868 6.5 21.7588 6.476 21.4948 6.572L21.2068 6.68C20.9188 6.8 20.5708 6.92 20.1628 7.04C19.7788 7.16 19.4428 7.28 19.1548 7.4L18.6148 7.58C18.3508 7.7 18.0868 7.688 17.8228 7.544C17.5588 7.4 17.3788 7.196 17.2828 6.932L16.8868 5.744C16.7908 5.456 16.8148 5.18 16.9588 4.916C17.1028 4.652 17.3188 4.484 17.6068 4.412L17.8588 4.34C18.1468 4.244 18.4828 4.136 18.8668 4.016C19.2748 3.896 19.6228 3.776 19.9108 3.656L20.2708 3.548C20.5588 3.428 20.8948 3.308 21.2788 3.188C21.6868 3.044 22.0228 2.912 22.2868 2.792L22.6108 2.684C22.8748 2.564 23.1268 2.468 23.3668 2.396C23.6308 2.324 23.7988 2.264 23.8708 2.216C23.9668 2.192 24.1348 2.204 24.3748 2.252C24.6388 2.3 24.9028 2.372 25.1668 2.468L25.6708 2.648ZM44.8726 26.552C44.8486 26.264 44.8246 25.916 44.8006 25.508C44.7766 25.076 44.7526 24.716 44.7286 24.428L44.6926 23.852C44.6686 23.564 44.6446 23.216 44.6206 22.808C44.5966 22.376 44.5846 22.016 44.5846 21.728V21.044C44.5606 20.756 44.5486 20.408 44.5486 20C44.5486 19.568 44.5486 19.196 44.5486 18.884V18.272C44.5726 17.984 44.5726 17.636 44.5486 17.228C44.5246 16.796 44.5006 16.424 44.4766 16.112L44.4046 15.464C44.3806 15.176 44.2606 14.984 44.0446 14.888C43.8526 14.768 43.6246 14.78 43.3606 14.924L42.9286 15.176C42.6646 15.32 42.3406 15.5 41.9566 15.716C41.5966 15.908 41.2846 16.064 41.0206 16.184L40.3726 16.544C40.1086 16.688 39.7966 16.868 39.4366 17.084C39.0766 17.276 38.7646 17.456 38.5006 17.624L37.7806 18.056C37.5166 18.224 37.2886 18.476 37.0966 18.812C36.9286 19.124 36.8326 19.424 36.8086 19.712V19.928C36.7846 20.24 36.7606 20.612 36.7366 21.044C36.7366 21.452 36.7366 21.8 36.7366 22.088V22.376C36.7366 22.688 36.7366 23.06 36.7366 23.492C36.7606 23.9 36.7726 24.248 36.7726 24.536L36.8086 24.896C36.8086 25.184 36.8086 25.544 36.8086 25.976C36.8086 26.384 36.7966 26.744 36.7726 27.056L36.7366 27.308C36.7126 27.62 36.5926 27.884 36.3766 28.1C36.1606 28.292 35.8966 28.388 35.5846 28.388L34.4686 28.424C34.1566 28.424 33.8926 28.328 33.6766 28.136C33.4846 27.92 33.3766 27.656 33.3526 27.344V27.02C33.3526 26.708 33.3526 26.348 33.3526 25.94C33.3766 25.508 33.3886 25.148 33.3886 24.86L33.4246 24.248C33.4246 23.96 33.4246 23.612 33.4246 23.204C33.4486 22.772 33.4486 22.4 33.4246 22.088V21.62V19.46V18.92C33.4486 18.608 33.4606 18.248 33.4606 17.84C33.4606 17.408 33.4606 17.048 33.4606 16.76V16.184C33.4846 15.896 33.4966 15.548 33.4966 15.14C33.5206 14.708 33.5446 14.336 33.5686 14.024L33.6406 13.448C33.6646 13.136 33.6766 12.776 33.6766 12.368C33.7006 11.936 33.7006 11.576 33.6766 11.288L33.6406 10.712C33.6406 10.424 33.6406 10.076 33.6406 9.668C33.6406 9.236 33.6526 8.864 33.6766 8.552L33.7126 7.94C33.7366 7.628 33.7486 7.268 33.7486 6.86C33.7486 6.428 33.7366 6.068 33.7126 5.78L33.6766 5.24C33.6526 4.928 33.6406 4.568 33.6406 4.16C33.6406 3.728 33.6526 3.368 33.6766 3.08L33.7126 2.576C33.7366 2.264 33.8566 2.012 34.0726 1.82C34.3126 1.604 34.5766 1.508 34.8646 1.532H35.9446C36.2326 1.556 36.4846 1.676 36.7006 1.892C36.9406 2.084 37.0606 2.336 37.0606 2.648L37.0966 2.936C37.0966 3.248 37.0966 3.62 37.0966 4.052C37.1206 4.46 37.1326 4.808 37.1326 5.096V5.564C37.1326 5.852 37.1206 6.212 37.0966 6.644C37.0966 7.052 37.0846 7.412 37.0606 7.724L36.9886 8.228C36.9646 8.516 36.9406 8.876 36.9166 9.308C36.9166 9.716 36.9166 10.076 36.9166 10.388L36.9526 10.928V13.088V13.628C36.9526 13.94 37.0486 14.156 37.2406 14.276C37.4326 14.372 37.6606 14.348 37.9246 14.204L38.3206 13.988C38.5846 13.868 38.8966 13.7 39.2566 13.484C39.6406 13.268 39.9646 13.088 40.2286 12.944L40.7686 12.584C41.0326 12.416 41.3446 12.236 41.7046 12.044C42.0646 11.828 42.3766 11.648 42.6406 11.504L43.3246 11.108C43.5886 10.964 43.7926 10.736 43.9366 10.424C44.1046 10.112 44.1766 9.812 44.1526 9.524L44.1166 9.416C44.0686 9.104 44.0326 8.744 44.0086 8.336C44.0086 7.928 44.0086 7.568 44.0086 7.256V6.932C44.0086 6.644 43.9966 6.296 43.9726 5.888C43.9726 5.456 43.9606 5.084 43.9366 4.772L43.9006 4.412C43.8526 4.124 43.8166 3.776 43.7926 3.368C43.7926 2.936 43.7926 2.564 43.7926 2.252V1.856C43.7926 1.568 43.8886 1.316 44.0806 1.1C44.2966 0.883999 44.5606 0.763999 44.8726 0.739999L46.1326 0.667998C46.4206 0.667998 46.6726 0.775998 46.8886 0.991998C47.1046 1.184 47.2246 1.424 47.2486 1.712L47.2846 1.856C47.2846 2.168 47.2846 2.54 47.2846 2.972C47.3086 3.38 47.3326 3.728 47.3566 4.016V4.34C47.3566 4.628 47.3566 4.988 47.3566 5.42C47.3806 5.828 47.4046 6.188 47.4286 6.5L47.4646 6.86C47.4886 7.148 47.5126 7.508 47.5366 7.94C47.5606 8.348 47.5846 8.708 47.6086 9.02V9.344C47.6326 9.656 47.6446 10.028 47.6446 10.46C47.6686 10.868 47.6926 11.216 47.7166 11.504V11.792C47.7406 12.104 47.7526 12.476 47.7526 12.908C47.7766 13.316 47.7886 13.664 47.7886 13.952V14.312C47.7886 14.624 47.7886 14.996 47.7886 15.428C47.8126 15.836 47.8246 16.184 47.8246 16.472V16.832V18.992V19.352C47.8246 19.64 47.8246 20 47.8246 20.432C47.8486 20.84 47.8726 21.2 47.8966 21.512V21.872C47.9206 22.184 47.9446 22.556 47.9686 22.988C47.9926 23.396 48.0166 23.744 48.0406 24.032L48.0766 24.428C48.1246 24.74 48.1486 25.112 48.1486 25.544C48.1726 25.952 48.1846 26.3 48.1846 26.588V26.84C48.1846 27.152 48.0766 27.416 47.8606 27.632C47.6446 27.848 47.3926 27.968 47.1046 27.992L46.0246 28.064C45.7126 28.088 45.4486 28.004 45.2326 27.812C45.0166 27.596 44.8966 27.344 44.8726 27.056V26.552ZM64.0524 4.232C64.1244 4.52 64.0884 4.796 63.9444 5.06C63.8004 5.324 63.5844 5.492 63.2964 5.564L63.0804 5.636C62.7924 5.732 62.4444 5.828 62.0364 5.924C61.6284 6.02 61.2684 6.104 60.9564 6.176L60.6324 6.248C60.3444 6.296 59.9964 6.38 59.5884 6.5C59.1804 6.596 58.8324 6.692 58.5444 6.788L58.1124 6.896C57.8484 6.992 57.5124 7.1 57.1044 7.22C56.6964 7.316 56.3364 7.388 56.0244 7.436L55.5924 7.544C55.3044 7.592 55.1004 7.736 54.9804 7.976C54.8844 8.192 54.9084 8.432 55.0524 8.696L55.1964 9.02C55.3404 9.284 55.5084 9.596 55.7004 9.956C55.9164 10.316 56.1084 10.628 56.2764 10.892L56.4924 11.216C56.6604 11.48 56.8524 11.792 57.0684 12.152C57.2844 12.488 57.4644 12.788 57.6084 13.052L57.8244 13.448C57.9684 13.712 58.0284 14.024 58.0044 14.384C58.0044 14.72 57.9204 15.008 57.7524 15.248L57.7164 15.284C57.5244 15.548 57.3084 15.848 57.0684 16.184C56.8524 16.52 56.6484 16.82 56.4564 17.084L56.3484 17.264C56.1564 17.528 55.9404 17.828 55.7004 18.164C55.4844 18.5 55.2924 18.8 55.1244 19.064L55.0524 19.208C54.8844 19.472 54.8364 19.736 54.9084 20C54.9804 20.264 55.1484 20.456 55.4124 20.576L55.7724 20.72C56.0364 20.84 56.3604 20.984 56.7444 21.152C57.1524 21.296 57.4884 21.428 57.7524 21.548L58.1484 21.692C58.4364 21.812 58.7724 21.944 59.1564 22.088C59.5644 22.208 59.9124 22.316 60.2004 22.412L60.6324 22.556C60.9204 22.676 61.2564 22.82 61.6404 22.988C62.0484 23.132 62.3844 23.264 62.6484 23.384L63.1524 23.6C63.4164 23.72 63.6084 23.924 63.7284 24.212C63.8484 24.476 63.8484 24.752 63.7284 25.04L63.2964 26.156C63.1764 26.444 62.9724 26.648 62.6844 26.768C62.4204 26.864 62.1564 26.852 61.8924 26.732L61.7124 26.66C61.4484 26.54 61.1124 26.408 60.7044 26.264C60.3204 26.096 59.9964 25.952 59.7324 25.832L59.4444 25.724C59.1804 25.604 58.8444 25.472 58.4364 25.328C58.0524 25.16 57.7284 25.016 57.4644 24.896L57.2124 24.788C56.9484 24.668 56.6124 24.548 56.2044 24.428C55.7964 24.284 55.4604 24.164 55.1964 24.068L54.8364 23.96C54.5484 23.864 54.2004 23.744 53.7924 23.6C53.4084 23.432 53.0844 23.288 52.8204 23.168L52.5684 23.06C52.3044 22.94 51.9684 22.796 51.5604 22.628C51.1764 22.46 50.8524 22.316 50.5884 22.196L50.2644 22.052C50.0004 21.932 49.8204 21.74 49.7244 21.476C49.6524 21.212 49.6884 20.96 49.8324 20.72C50.0004 20.456 50.1924 20.156 50.4084 19.82C50.6244 19.46 50.8284 19.16 51.0204 18.92L51.0564 18.884C51.2244 18.62 51.4284 18.32 51.6684 17.984C51.9084 17.648 52.1244 17.36 52.3164 17.12L52.4604 16.94C52.6284 16.7 52.8324 16.412 53.0724 16.076C53.3364 15.74 53.5644 15.452 53.7564 15.212L53.8644 15.068C54.0564 14.828 54.1524 14.54 54.1524 14.204C54.1764 13.844 54.1164 13.532 53.9724 13.268L53.8284 13.016C53.6604 12.752 53.4684 12.44 53.2524 12.08C53.0604 11.72 52.8924 11.408 52.7484 11.144L52.6044 10.892C52.4604 10.628 52.2684 10.328 52.0284 9.992C51.8124 9.632 51.6204 9.332 51.4524 9.092L51.2004 8.732C51.0324 8.492 50.8404 8.192 50.6244 7.832C50.4084 7.472 50.2284 7.16 50.0844 6.896L49.8324 6.464C49.6884 6.2 49.6644 5.96 49.7604 5.744C49.8804 5.504 50.0844 5.36 50.3724 5.312H50.5164C50.8044 5.264 51.1524 5.192 51.5604 5.096C51.9684 4.976 52.3164 4.868 52.6044 4.772L52.7484 4.7C53.0364 4.604 53.3844 4.508 53.7924 4.412C54.2004 4.316 54.5484 4.244 54.8364 4.196L55.1244 4.16C55.4364 4.112 55.7964 4.04 56.2044 3.944C56.6124 3.848 56.9604 3.764 57.2484 3.692L57.6084 3.62C57.8964 3.548 58.2324 3.452 58.6164 3.332C59.0244 3.212 59.3724 3.104 59.6604 3.008L59.9844 2.9C60.2724 2.78 60.6204 2.672 61.0284 2.576C61.4364 2.48 61.7844 2.408 62.0724 2.36L62.3604 2.288C62.6724 2.24 62.9604 2.3 63.2244 2.468C63.4884 2.636 63.6564 2.864 63.7284 3.152L64.0524 4.232ZM78.3574 24.788C78.3814 24.5 78.3934 24.152 78.3934 23.744C78.3934 23.312 78.3814 22.94 78.3574 22.628L78.3214 22.088C78.2974 21.8 78.2734 21.452 78.2494 21.044C78.2494 20.612 78.2494 20.24 78.2494 19.928L78.2134 19.388C78.2134 19.076 78.2134 18.716 78.2134 18.308C78.2374 17.876 78.2614 17.516 78.2854 17.228L78.3214 16.58C78.3694 16.268 78.3094 15.956 78.1414 15.644C77.9974 15.308 77.7934 15.044 77.5294 14.852L77.0254 14.492C76.7614 14.3 76.4614 14.084 76.1254 13.844C75.8134 13.604 75.5374 13.388 75.2974 13.196L74.8294 12.8C74.5894 12.608 74.3134 12.38 74.0014 12.116C73.6894 11.852 73.4134 11.624 73.1734 11.432L72.6694 11C72.4534 10.808 72.1774 10.58 71.8414 10.316C71.5294 10.028 71.2654 9.788 71.0494 9.596L70.5094 9.128C70.2694 8.936 70.0654 8.876 69.8974 8.948C69.7534 9.02 69.6814 9.2 69.6814 9.488L69.7174 9.632V11.792V12.044C69.7174 12.356 69.7174 12.728 69.7174 13.16C69.7174 13.568 69.7054 13.916 69.6814 14.204V14.528C69.6814 14.84 69.6814 15.212 69.6814 15.644C69.6814 16.052 69.6694 16.4 69.6454 16.688V17.012C69.6214 17.324 69.6094 17.696 69.6094 18.128C69.6334 18.536 69.6454 18.884 69.6454 19.172L69.6814 19.496C69.6814 19.808 69.6814 20.18 69.6814 20.612C69.7054 21.02 69.7294 21.368 69.7534 21.656V22.016C69.7774 22.304 69.7894 22.664 69.7894 23.096C69.7894 23.504 69.7774 23.864 69.7534 24.176V24.536C69.7534 24.848 69.7414 25.22 69.7174 25.652C69.7174 26.06 69.7054 26.408 69.6814 26.696V26.984C69.6814 27.272 69.5734 27.524 69.3574 27.74C69.1414 27.956 68.8894 28.064 68.6014 28.064H67.4134C67.1014 28.064 66.8374 27.968 66.6214 27.776C66.4294 27.56 66.3334 27.296 66.3334 26.984V26.732C66.3334 26.42 66.3334 26.06 66.3334 25.652C66.3334 25.22 66.3454 24.86 66.3694 24.572V24.176C66.3934 23.888 66.3934 23.54 66.3694 23.132C66.3694 22.7 66.3574 22.328 66.3334 22.016L66.2974 21.584C66.2734 21.296 66.2494 20.948 66.2254 20.54C66.2254 20.108 66.2374 19.748 66.2614 19.46L66.2974 19.028C66.3214 18.74 66.3334 18.392 66.3334 17.984C66.3334 17.552 66.3214 17.18 66.2974 16.868L66.2614 16.436C66.2374 16.148 66.2254 15.8 66.2254 15.392C66.2254 14.96 66.2374 14.588 66.2614 14.276V13.808V11.648L66.2254 11.18V9.02L66.2614 8.588C66.2614 8.276 66.2614 7.916 66.2614 7.508C66.2854 7.076 66.2974 6.716 66.2974 6.428V5.96C66.3214 5.648 66.3334 5.288 66.3334 4.88C66.3334 4.448 66.3334 4.088 66.3334 3.8V2.396C66.3094 2.084 66.3814 1.892 66.5494 1.82C66.7174 1.748 66.9214 1.808 67.1614 2L67.3774 2.18C67.5934 2.372 67.8574 2.6 68.1694 2.864C68.5054 3.104 68.7934 3.32 69.0334 3.512L69.3574 3.764C69.5974 3.956 69.8734 4.184 70.1854 4.448C70.5214 4.688 70.8094 4.904 71.0494 5.096L71.3734 5.348C71.6134 5.54 71.8894 5.78 72.2014 6.068C72.5374 6.332 72.8134 6.56 73.0294 6.752L73.3894 7.112C73.6294 7.304 73.9054 7.544 74.2174 7.832C74.5294 8.096 74.8054 8.324 75.0454 8.516L75.4414 8.84C75.6574 9.032 75.9214 9.26 76.2334 9.524C76.5694 9.788 76.8574 10.016 77.0974 10.208L77.5294 10.568C77.7454 10.76 77.9254 10.82 78.0694 10.748C78.2374 10.652 78.3214 10.46 78.3214 10.172L78.2854 9.74C78.2854 9.452 78.2854 9.104 78.2854 8.696C78.2854 8.264 78.2974 7.904 78.3214 7.616L78.3574 7.004C78.3814 6.716 78.3934 6.368 78.3934 5.96C78.3934 5.528 78.3814 5.156 78.3574 4.844L78.3214 4.16C78.2974 3.872 78.3814 3.632 78.5734 3.44C78.7654 3.224 79.0174 3.128 79.3294 3.152L80.5174 3.224C80.8294 3.248 81.0934 3.368 81.3094 3.584C81.5254 3.8 81.6454 4.052 81.6694 4.34L81.7054 4.556C81.7294 4.868 81.7414 5.24 81.7414 5.672C81.7414 6.08 81.7294 6.428 81.7054 6.716V7.076C81.6814 7.388 81.6574 7.76 81.6334 8.192C81.6334 8.6 81.6454 8.948 81.6694 9.236L81.7054 9.668C81.7294 9.98 81.7414 10.352 81.7414 10.784C81.7414 11.192 81.7414 11.54 81.7414 11.828V12.224V14.384V14.816C81.7654 15.128 81.7774 15.5 81.7774 15.932C81.7774 16.34 81.7774 16.688 81.7774 16.976V17.48C81.7774 17.768 81.7654 18.128 81.7414 18.56C81.7414 18.968 81.7414 19.328 81.7414 19.64V20.072C81.7414 20.384 81.7414 20.756 81.7414 21.188C81.7414 21.596 81.7294 21.944 81.7054 22.232V22.7C81.6814 22.988 81.6694 23.348 81.6694 23.78C81.6694 24.188 81.6694 24.548 81.6694 24.86V25.364C81.6934 25.676 81.5974 25.94 81.3814 26.156C81.1894 26.348 80.9374 26.444 80.6254 26.444L79.3294 26.48C79.0174 26.48 78.7654 26.384 78.5734 26.192C78.3814 25.976 78.2974 25.712 78.3214 25.4L78.3574 24.788ZM101.636 27.38C101.372 27.5 101.096 27.5 100.808 27.38C100.52 27.236 100.316 27.032 100.196 26.768L100.124 26.588C100.004 26.324 99.8602 26 99.6922 25.616C99.5242 25.208 99.3802 24.872 99.2602 24.608L99.1162 24.284C98.9962 24.02 98.8402 23.696 98.6482 23.312C98.4802 22.904 98.3362 22.568 98.2162 22.304L98.0002 21.872C97.8802 21.608 97.7362 21.284 97.5682 20.9C97.4242 20.492 97.2922 20.144 97.1722 19.856L96.9922 19.388C96.8962 19.124 96.7042 18.92 96.4162 18.776C96.1522 18.608 95.8762 18.572 95.5882 18.668L95.1202 18.776C94.8322 18.872 94.4842 18.956 94.0762 19.028C93.6682 19.1 93.3202 19.16 93.0322 19.208L92.5642 19.28C92.2762 19.328 91.9162 19.388 91.4842 19.46C91.0762 19.508 90.7282 19.556 90.4402 19.604L89.9722 19.676C89.6602 19.724 89.3602 19.868 89.0722 20.108C88.8082 20.348 88.6162 20.612 88.4962 20.9L88.2802 21.476C88.1602 21.74 88.0162 22.076 87.8482 22.484C87.6802 22.868 87.5362 23.192 87.4162 23.456L87.0922 24.176C86.9722 24.44 86.8282 24.764 86.6602 25.148C86.4922 25.532 86.3482 25.868 86.2282 26.156L85.9402 26.84C85.8202 27.104 85.6162 27.296 85.3282 27.416C85.0642 27.536 84.7882 27.536 84.5002 27.416L83.3482 26.948C83.0842 26.828 82.8922 26.636 82.7722 26.372C82.6762 26.108 82.7002 25.844 82.8442 25.58L82.9882 25.256C83.1082 24.992 83.2522 24.668 83.4202 24.284C83.6122 23.9 83.7682 23.576 83.8882 23.312L84.0322 22.952C84.1522 22.688 84.2842 22.364 84.4282 21.98C84.5722 21.572 84.7042 21.224 84.8242 20.936L84.9682 20.54C85.0642 20.276 85.1842 19.952 85.3282 19.568C85.4962 19.16 85.6402 18.812 85.7602 18.524L85.9042 18.164C86.0242 17.9 86.1682 17.576 86.3362 17.192C86.5282 16.784 86.6842 16.448 86.8042 16.184L86.9842 15.788C87.1042 15.524 87.2482 15.2 87.4162 14.816C87.5842 14.432 87.7282 14.096 87.8482 13.808L87.9922 13.448C88.1122 13.184 88.2562 12.86 88.4242 12.476C88.5922 12.068 88.7362 11.732 88.8562 11.468L89.0362 11.036C89.1562 10.772 89.2882 10.448 89.4322 10.064C89.6002 9.656 89.7442 9.32 89.8642 9.056L90.0082 8.624C90.1282 8.36 90.2722 8.036 90.4402 7.652C90.6082 7.244 90.7522 6.908 90.8722 6.644L91.0882 6.212C91.2082 5.948 91.3522 5.636 91.5202 5.276C91.6882 4.916 91.8202 4.604 91.9162 4.34C92.0362 4.076 92.1562 3.776 92.2762 3.44C92.4202 3.104 92.5402 2.816 92.6362 2.576C92.7322 2.312 92.8522 2.204 92.9962 2.252C93.1402 2.276 93.2722 2.42 93.3922 2.684L93.5002 2.9C93.6202 3.164 93.7522 3.5 93.8962 3.908C94.0642 4.292 94.2082 4.616 94.3282 4.88L94.5442 5.42C94.6642 5.708 94.8082 6.044 94.9762 6.428C95.1442 6.812 95.2882 7.136 95.4082 7.4L95.6602 7.94C95.7802 8.204 95.9362 8.528 96.1282 8.912C96.3202 9.296 96.4762 9.62 96.5962 9.884L96.8482 10.388C96.9682 10.652 97.1122 10.976 97.2802 11.36C97.4482 11.744 97.5922 12.08 97.7122 12.368L97.8922 12.872C98.0122 13.16 98.1442 13.508 98.2882 13.916C98.4562 14.3 98.6002 14.624 98.7202 14.888L98.9722 15.392C99.0922 15.656 99.2242 15.992 99.3682 16.4C99.5362 16.784 99.6802 17.12 99.8002 17.408L99.9802 17.912C100.1 18.2 100.232 18.548 100.376 18.956C100.544 19.34 100.688 19.664 100.808 19.928L101.024 20.396C101.144 20.66 101.288 20.996 101.456 21.404C101.624 21.788 101.768 22.112 101.888 22.376L102.14 22.952C102.26 23.216 102.404 23.552 102.572 23.96C102.764 24.344 102.92 24.668 103.04 24.932L103.328 25.544C103.448 25.808 103.448 26.072 103.328 26.336C103.232 26.6 103.052 26.792 102.788 26.912L101.636 27.38ZM91.6642 15.932C91.9522 15.86 92.3002 15.788 92.7082 15.716C93.1402 15.644 93.5002 15.584 93.7882 15.536L94.1842 15.464C94.4962 15.416 94.7122 15.284 94.8322 15.068C94.9762 14.852 94.9882 14.6 94.8682 14.312L94.6522 13.736C94.5322 13.472 94.3882 13.148 94.2202 12.764C94.0762 12.356 93.9442 12.02 93.8242 11.756L93.5002 11.036C93.3802 10.772 93.2362 10.64 93.0682 10.64C92.9002 10.64 92.7562 10.772 92.6362 11.036V11.108C92.5162 11.396 92.3722 11.744 92.2042 12.152C92.0602 12.536 91.9282 12.86 91.8082 13.124C91.6882 13.388 91.5442 13.724 91.3762 14.132C91.2082 14.516 91.0642 14.84 90.9442 15.104L90.8722 15.284C90.7522 15.548 90.7522 15.752 90.8722 15.896C90.9922 16.04 91.1962 16.076 91.4842 16.004L91.6642 15.932Z" fill="#333333"/>
</svg>
