<svg width="128" height="128" viewBox="0 0 128 128" fill="none" xmlns="http://www.w3.org/2000/svg">
<g clip-path="url(#clip0)">
<path d="M37.5884 22.6991H82.2849C89.9338 22.6991 96.1581 28.929 96.1581 36.5872V91.4128C96.1581 99.071 89.9338 105.301 82.2849 105.301H37.5884C29.9395 105.301 23.7152 99.071 23.7152 91.4128V36.5872C23.7152 28.929 29.9395 22.6991 37.5884 22.6991ZM82.2846 101.937C88.0804 101.937 92.7944 97.217 92.7944 91.4128V36.5872C92.7944 30.7834 88.0804 26.0628 82.2846 26.0628H37.5882C31.7923 26.0628 27.0783 30.7831 27.0783 36.5872V91.4128C27.0783 97.2167 31.7923 101.937 37.5882 101.937H82.2846Z" fill="#333333" stroke="#333333" stroke-width="0.7"/>
<path d="M85.9723 24.0805L85.9724 24.0807C86.0619 24.5712 85.9284 25.075 85.6087 25.4582C85.2889 25.841 84.8158 26.0628 84.3176 26.0628H35.5557C35.0568 26.0628 34.5839 25.8413 34.2651 25.4585C33.9455 25.0747 33.8116 24.5709 33.9012 24.0807L33.9012 24.0805L36.875 7.72128C36.875 7.72127 36.875 7.72125 36.875 7.72123C37.6263 3.59196 41.5107 0.35 45.7024 0.35H74.1708C78.3637 0.35 82.2469 3.59192 82.9985 7.72123C82.9985 7.72126 82.9985 7.72128 82.9985 7.72131L85.9723 24.0805ZM37.6458 22.2865L37.5708 22.6991H37.9902H81.883H82.3024L82.2274 22.2865L79.6887 8.32222L79.6887 8.32209C79.4584 7.0581 78.7086 5.90873 77.7138 5.07761C76.719 4.24649 75.455 3.71339 74.1705 3.71339H45.7021C44.4177 3.71339 43.1538 4.2459 42.159 5.0768C41.1642 5.90771 40.4144 7.0571 40.1839 8.3221L40.1839 8.32223L37.6458 22.2865Z" fill="#333333" stroke="#333333" stroke-width="0.7"/>
<path d="M85.608 102.542L85.6082 102.542C85.9278 102.925 86.0615 103.429 85.9719 103.919L85.9719 103.92L82.9981 120.279C82.9981 120.279 82.9981 120.279 82.9981 120.279C82.2467 124.408 78.3636 127.65 74.1707 127.65H45.7023C41.5106 127.65 37.6265 124.408 36.8749 120.279L33.9008 103.92L33.9007 103.919C33.8111 103.429 33.9447 102.925 34.2643 102.542C34.5841 102.159 35.0572 101.937 35.5555 101.937H84.3174C84.8163 101.937 85.2892 102.159 85.608 102.542ZM79.6891 119.678L79.6892 119.677L82.2273 105.713L82.3023 105.3H81.8829H37.9901H37.5707L37.6457 105.713L40.1844 119.677L40.1844 119.677C40.4147 120.942 41.1645 122.092 42.1594 122.923C43.1542 123.754 44.4182 124.286 45.7026 124.286H74.171C75.4554 124.286 76.7193 123.753 77.7141 122.922C78.7089 122.091 79.4587 120.942 79.6891 119.678Z" fill="#333333" stroke="#333333" stroke-width="0.7"/>
<path d="M98.8414 42.667H94.4762C93.3542 42.667 92.4443 43.5756 92.4443 44.6988V62.9846C92.4443 64.1075 93.3542 65.0164 94.4762 65.0164H98.8414C102.036 65.0164 104.635 62.4173 104.635 59.2229V48.4607C104.635 45.2661 102.036 42.667 98.8414 42.667ZM100.571 59.2226C100.571 60.1771 99.7958 60.9527 98.8414 60.9527H96.508V46.7304H98.8414C99.7958 46.7304 100.571 47.506 100.571 48.4604V59.2226Z" fill="#333333"/>
<path d="M39.024 31.0717C38.2306 30.2782 36.9446 30.2782 36.1511 31.0717L31.0717 36.1511C30.2782 36.9446 30.2782 38.2306 31.0717 39.024C31.4684 39.4208 31.9886 39.6193 32.508 39.6193C33.0276 39.6193 33.5478 39.4208 33.9443 39.024L39.0237 33.9446C39.8175 33.1511 39.8175 31.8651 39.024 31.0717Z" fill="#333333"/>
<path d="M47.1505 31.0717C46.3571 30.2782 45.0711 30.2782 44.2776 31.0717L33.1029 42.2464C32.3094 43.0398 32.3094 44.3258 33.1029 45.1193C33.4996 45.516 34.0199 45.7145 34.5392 45.7145C35.0589 45.7145 35.5791 45.516 35.9755 45.1193L47.1502 33.9446C47.944 33.1511 47.944 31.8651 47.1505 31.0717Z" fill="#333333"/>
</g>
<defs>
<clipPath id="clip0">
<rect width="128" height="128" fill="white"/>
</clipPath>
</defs>
</svg>
