<svg width="128" height="128" viewBox="0 0 128 128" fill="none" xmlns="http://www.w3.org/2000/svg">
<path d="M32.6818 108.811V108.911H32.7818H95.2204H95.3204V108.811V15.564V15.464H95.2204H32.7818H32.6818V15.564V108.811ZM33.9832 0.1H94.0165C96.7214 0.1 98.9211 2.3009 98.9199 5.00589V122.995C98.9199 125.7 96.7214 127.9 94.0165 127.9H33.9832C31.2782 127.9 29.0785 125.7 29.0785 122.995V5.00594C29.0785 2.3009 31.2782 0.1 33.9832 0.1ZM63.9998 112.217C61.2312 112.217 58.9915 114.46 58.9915 117.228C58.9915 119.996 61.2312 122.239 63.9998 122.239C66.7723 122.239 69.0082 119.996 69.0082 117.228C69.0082 114.461 66.7723 112.217 63.9998 112.217Z" fill="#333333" stroke="white" stroke-width="0.2"/>
</svg>
