<svg width="160" height="128" viewBox="0 0 160 128" fill="none" xmlns="http://www.w3.org/2000/svg">
<g clip-path="url(#clip0)">
<path d="M65.9668 107.778V106.278H64.4668H9.40508C8.04352 106.278 6.5 104.852 6.5 102.499V5.27928C6.5 2.92635 8.04352 1.5 9.40508 1.5H150.595C151.956 1.5 153.5 2.92635 153.5 5.27928V102.499C153.5 104.852 151.956 106.278 150.595 106.278H95.5332H94.0332V107.778V117.441V118.941H95.5332H107.417C108.778 118.941 110.322 120.368 110.322 122.721C110.322 125.074 108.778 126.5 107.417 126.5H52.5828C51.2213 126.5 49.6777 125.074 49.6777 122.721C49.6777 120.368 51.2213 118.941 52.5828 118.941H64.4668H65.9668V117.441V107.778ZM86.723 118.942H88.223V117.442V107.778V106.278H86.723H73.277H71.777V107.778V117.442V118.942H73.277H86.723ZM146.19 98.7197H147.69V97.2197V10.5589V9.0589H146.19H13.8102H12.3102V10.5589V97.2197V98.7197H13.8102H146.19Z" fill="#333333" stroke="white" stroke-width="3"/>
</g>
<defs>
<clipPath id="clip0">
<rect width="160" height="128" fill="white"/>
</clipPath>
</defs>
</svg>
