<svg width="128" height="128" viewBox="0 0 128 128" fill="none" xmlns="http://www.w3.org/2000/svg">
<g clip-path="url(#clip0)">
<path d="M106.41 117.275H107.06V116.625V11.3726V10.7226H106.41H21.59H20.94V11.3726V116.625V117.275H21.59H106.41ZM23.1327 0.65H104.868C108.76 0.65 111.929 3.81731 111.929 7.71083V120.29C111.929 124.183 108.76 127.351 104.868 127.351H23.1327C19.2404 127.351 16.0719 124.183 16.0719 120.29V7.71083C16.0719 3.81855 19.2404 0.65 23.1327 0.65ZM65.8069 5.59045C65.8069 4.59338 64.9973 3.78376 64.0002 3.78376C63.0041 3.78376 62.1935 4.59111 62.1935 5.58914C62.1935 6.5862 63.0032 7.39583 64.0002 7.39583C64.9963 7.39583 65.8069 6.58848 65.8069 5.59045ZM61.0368 121.445C61.0368 123.083 62.364 124.408 64.0002 124.408C65.6364 124.408 66.9636 123.083 66.9636 121.445C66.9636 119.807 65.6369 118.48 64.0002 118.48C62.3635 118.48 61.0368 119.807 61.0368 121.445Z" fill="#333333" stroke="white" stroke-width="1.3"/>
</g>
<defs>
<clipPath id="clip0">
<rect width="128" height="128" fill="white"/>
</clipPath>
</defs>
</svg>
