<svg width="26" height="34" viewBox="0 0 26 34" fill="none" xmlns="http://www.w3.org/2000/svg">
<path d="M14.784 23.432C14.816 23.528 14.832 23.656 14.832 23.816C14.832 24.2 14.704 24.52 14.448 24.776C14.224 25.032 13.92 25.24 13.536 25.4C13.184 25.56 12.784 25.704 12.336 25.832C11.92 25.928 11.52 26.04 11.136 26.168L10.848 26.264C10.464 26.392 10 26.552 9.456 26.744C8.944 26.904 8.496 27.048 8.112 27.176L7.728 27.32C7.376 27.448 6.928 27.608 6.384 27.8C5.84 27.96 5.376 28.104 4.992 28.232L4.656 28.328C4.272 28.456 3.808 28.6 3.264 28.76C2.72 28.92 2.256 29.048 1.872 29.144L1.488 29.24C1.392 29.272 1.28 29.288 1.152 29.288C0.672 29.288 0.432 29.064 0.432 28.616C0.432 28.552 0.464 28.424 0.528 28.232L0.672 27.848C0.768 27.496 0.896 27.048 1.056 26.504C1.248 25.96 1.424 25.512 1.584 25.16L1.728 24.68C1.856 24.296 2 23.848 2.16 23.336C2.32 22.792 2.464 22.328 2.592 21.944L2.784 21.272C2.912 20.888 3.056 20.424 3.216 19.88C3.376 19.336 3.52 18.888 3.648 18.536L3.84 17.912C3.968 17.528 4.112 17.064 4.272 16.52C4.464 15.976 4.624 15.528 4.752 15.176L4.992 14.552C5.152 14.168 5.296 13.72 5.424 13.208C5.584 12.664 5.728 12.2 5.856 11.816L6.048 11.24C6.176 10.856 6.32 10.392 6.48 9.848C6.64 9.304 6.784 8.856 6.912 8.504L7.104 7.832C7.2 7.448 7.328 7 7.488 6.488C7.68 5.944 7.856 5.48 8.016 5.096L8.208 4.472C8.368 4.088 8.528 3.64 8.688 3.128C8.848 2.584 9.008 2.12 9.168 1.736L9.552 0.727998C9.712 0.311997 9.904 0.103997 10.128 0.103997C10.352 0.103997 10.544 0.279998 10.704 0.631999L10.8 0.823999C10.992 1.176 11.216 1.608 11.472 2.12C11.728 2.632 11.936 3.064 12.096 3.416L12.24 3.752C12.432 4.104 12.624 4.536 12.816 5.048C13.04 5.56 13.232 6.008 13.392 6.392L13.584 6.824C13.712 7.176 13.872 7.624 14.064 8.168C14.288 8.68 14.48 9.112 14.64 9.464L14.832 9.896C14.992 10.248 15.184 10.68 15.408 11.192C15.664 11.704 15.888 12.136 16.08 12.488L16.32 12.92C16.48 13.272 16.688 13.704 16.944 14.216C17.2 14.728 17.408 15.16 17.568 15.512L17.76 15.944C17.92 16.296 18.112 16.728 18.336 17.24C18.592 17.752 18.816 18.184 19.008 18.536L19.296 19.016C19.488 19.368 19.696 19.8 19.92 20.312C20.144 20.824 20.336 21.272 20.496 21.656L20.688 22.184C20.848 22.536 21.024 22.984 21.216 23.528C21.44 24.04 21.648 24.472 21.84 24.824L22.08 25.352C22.272 25.704 22.48 26.136 22.704 26.648C22.96 27.16 23.168 27.592 23.328 27.944L23.52 28.376C23.68 28.76 23.872 29.208 24.096 29.72C24.352 30.232 24.576 30.664 24.768 31.016L25.008 31.496C25.104 31.688 25.152 31.896 25.152 32.12C25.152 32.696 24.88 33.112 24.336 33.368L24.096 33.464C23.904 33.56 23.696 33.608 23.472 33.608C23.216 33.608 22.96 33.528 22.704 33.368C22.448 33.208 22.256 33 22.128 32.744L21.888 32.264C21.728 31.912 21.52 31.496 21.264 31.016C21.008 30.504 20.8 30.056 20.64 29.672L20.4 29.048C20.24 28.696 20.048 28.264 19.824 27.752C19.6 27.208 19.408 26.76 19.248 26.408L18.912 25.784C18.72 25.432 18.512 25 18.288 24.488C18.064 23.976 17.872 23.544 17.712 23.192L17.424 22.52C17.264 22.168 17.04 21.736 16.752 21.224C16.496 20.712 16.288 20.28 16.128 19.928L15.792 19.304C15.6 18.952 15.376 18.536 15.12 18.056C14.864 17.544 14.656 17.112 14.496 16.76L14.112 15.944C13.952 15.592 13.76 15.16 13.536 14.648C13.312 14.136 13.12 13.688 12.96 13.304L12.672 12.536C12.512 12.184 12.32 11.752 12.096 11.24C11.872 10.728 11.68 10.28 11.52 9.896L11.184 9.176C10.992 8.856 10.816 8.696 10.656 8.696C10.4 8.696 10.224 8.888 10.128 9.272L9.984 9.8C9.856 10.184 9.696 10.648 9.504 11.192C9.344 11.736 9.184 12.184 9.024 12.536L8.784 13.112C8.624 13.464 8.464 13.912 8.304 14.456C8.144 15 8 15.464 7.872 15.848L7.632 16.52C7.472 16.904 7.328 17.368 7.2 17.912C7.104 18.456 6.992 18.92 6.864 19.304L6.672 19.928C6.544 20.312 6.416 20.776 6.288 21.32C6.16 21.864 6.016 22.312 5.856 22.664L5.616 23.288C5.584 23.384 5.552 23.464 5.52 23.528C5.52 23.592 5.52 23.656 5.52 23.72C5.52 24.104 5.712 24.296 6.096 24.296C6.192 24.296 6.336 24.264 6.528 24.2L6.672 24.152C7.056 24.024 7.52 23.896 8.064 23.768C8.608 23.608 9.072 23.48 9.456 23.384L9.744 23.288C10.128 23.192 10.592 23.064 11.136 22.904C11.68 22.744 12.128 22.584 12.48 22.424L13.008 22.232C13.2 22.168 13.36 22.136 13.488 22.136C14.128 22.136 14.528 22.456 14.688 23.096L14.784 23.432Z" fill="#456AE5"/>
</svg>
