<svg width="100" height="100" viewBox="0 0 100 100" fill="none" xmlns="http://www.w3.org/2000/svg">
<circle cx="50" cy="50" r="50" fill="#8A25DF" fill-opacity="0.05"/>
<path d="M60 78C56.8355 78 53.7421 77.0616 51.1109 75.3035C48.4797 73.5454 46.4289 71.0466 45.2179 68.1229C44.0069 65.1993 43.6901 61.9823 44.3074 58.8786C44.9248 55.7749 46.4487 52.9239 48.6863 50.6863C50.9239 48.4487 53.7749 46.9248 56.8786 46.3074C59.9823 45.6901 63.1993 46.0069 66.1229 47.2179C69.0466 48.4289 71.5454 50.4797 73.3035 53.1109C75.0616 55.7421 76 58.8355 76 62C76 66.2435 74.3143 70.3131 71.3137 73.3137C68.3131 76.3143 64.2435 78 60 78ZM60 50C57.6266 50 55.3066 50.7038 53.3332 52.0224C51.3598 53.3409 49.8217 55.2151 48.9135 57.4078C48.0052 59.6005 47.7676 62.0133 48.2306 64.3411C48.6936 66.6689 49.8365 68.8071 51.5147 70.4853C53.193 72.1635 55.3312 73.3064 57.6589 73.7694C59.9867 74.2325 62.3995 73.9948 64.5922 73.0866C66.7849 72.1783 68.6591 70.6402 69.9776 68.6669C71.2962 66.6935 72 64.3734 72 62C72 58.8174 70.7357 55.7652 68.4853 53.5147C66.2349 51.2643 63.1826 50 60 50Z" fill="#8A25DF"/>
<path d="M63.18 68L58 62.82V54H62V61.18L66 65.18L63.18 68Z" fill="#8A25DF"/>
<path d="M74 30C74 28.9391 73.5786 27.9217 72.8284 27.1716C72.0783 26.4214 71.0609 26 70 26H62V22H58V26H42V22H38V26H30C28.9391 26 27.9217 26.4214 27.1716 27.1716C26.4214 27.9217 26 28.9391 26 30V70C26 71.0609 26.4214 72.0783 27.1716 72.8284C27.9217 73.5786 28.9391 74 30 74H38V70H30V30H38V34H42V30H58V34H62V30H70V42H74V30Z" fill="#8A25DF"/>
</svg>
