<svg width="100" height="100" viewBox="0 0 100 100" fill="none" xmlns="http://www.w3.org/2000/svg">
<circle cx="50" cy="50" r="50" fill="#8A25DF" fill-opacity="0.05"/>
<path d="M50 22L26 30V54C26 67.2562 36.7437 78 50 78C63.2562 78 74 67.2562 74 54V30L50 22ZM69.5 54C69.5 64.7687 60.7687 73.5 50 73.5C39.2312 73.5 30.5 64.7687 30.5 54V33.375L50 26.5L69.5 33.375V54Z" fill="#8A25DF"/>
<path d="M41.6508 47.6938C41.4423 47.4843 41.1944 47.318 40.9214 47.2046C40.6485 47.0912 40.3558 47.0328 40.0602 47.0328C39.7646 47.0328 39.4719 47.0912 39.199 47.2046C38.926 47.318 38.6781 47.4843 38.4696 47.6938C38.2601 47.9023 38.0938 48.1502 37.9804 48.4231C37.867 48.6961 37.8086 48.9888 37.8086 49.2844C37.8086 49.58 37.867 49.8727 37.9804 50.1456C38.0938 50.4186 38.2601 50.6665 38.4696 50.875L46.5571 58.9625L46.6883 59.0938C46.8856 59.2914 47.1199 59.4482 47.3778 59.5552C47.6357 59.6621 47.9122 59.7172 48.1914 59.7172C48.4707 59.7172 48.7472 59.6621 49.0051 59.5552C49.263 59.4482 49.4973 59.2914 49.6946 59.0938L63.6633 45.125C63.861 44.9277 64.0177 44.6934 64.1247 44.4355C64.2317 44.1776 64.2868 43.9011 64.2868 43.6219C64.2868 43.3426 64.2317 43.0662 64.1247 42.8082C64.0177 42.5503 63.861 42.316 63.6633 42.1188L63.4883 41.9438C63.2911 41.7461 63.0568 41.5893 62.7988 41.4824C62.5409 41.3754 62.2644 41.3203 61.9852 41.3203C61.706 41.3203 61.4295 41.3754 61.1716 41.4824C60.9136 41.5893 60.6793 41.7461 60.4821 41.9438L48.1883 54.2313L41.6508 47.6938Z" fill="#8A25DF"/>
</svg>
