<svg width="100" height="100" viewBox="0 0 100 100" fill="none" xmlns="http://www.w3.org/2000/svg">
<circle cx="50" cy="50" r="50" fill="#8A25DF" fill-opacity="0.05"/>
<path d="M28.5002 49.5125C28.5627 46.7812 29.1252 44.1313 30.1814 41.6375C31.2627 39.075 32.8127 36.7812 34.7877 34.8C36.7627 32.8187 39.0627 31.2688 41.6252 30.1875C44.2752 29.0687 47.0877 28.5 49.9939 28.5C52.9002 28.5 55.7127 29.0687 58.3564 30.1875C60.9116 31.2665 63.2319 32.8332 65.1877 34.8C65.8064 35.4187 66.3877 36.075 66.9252 36.7625L63.1627 39.7C63.0882 39.7576 63.0315 39.835 62.9991 39.9234C62.9667 40.0118 62.9599 40.1075 62.9795 40.1995C62.9991 40.2916 63.0443 40.3763 63.1099 40.4438C63.1754 40.5113 63.2587 40.559 63.3502 40.5812L74.3314 43.2687C74.6439 43.3438 74.9502 43.1063 74.9502 42.7875L75.0002 31.4812C75.0002 31.0625 74.5189 30.825 74.1939 31.0875L70.6689 33.8438C65.8627 27.6937 58.3877 23.75 49.9877 23.75C35.6689 23.75 24.0189 35.225 23.7502 49.4875C23.7485 49.5542 23.7602 49.6206 23.7846 49.6827C23.8089 49.7448 23.8455 49.8014 23.8921 49.8492C23.9387 49.8969 23.9944 49.9349 24.0559 49.9608C24.1174 49.9867 24.1834 50 24.2502 50H28.0002C28.2752 50 28.4939 49.7812 28.5002 49.5125ZM75.7502 50H72.0002C71.7252 50 71.5064 50.2188 71.5002 50.4875C71.4377 53.2188 70.8752 55.8687 69.8189 58.3625C68.7377 60.925 67.1877 63.225 65.2127 65.2C63.2192 67.2017 60.8492 68.7889 58.2394 69.8702C55.6295 70.9515 52.8314 71.5054 50.0064 71.5C47.1824 71.5053 44.3852 70.9513 41.7764 69.87C39.1676 68.7887 36.7987 67.2015 34.8064 65.2C34.1877 64.5812 33.6064 63.925 33.0689 63.2375L36.8314 60.3C36.9059 60.2424 36.9625 60.165 36.9949 60.0766C37.0273 59.9882 37.0341 59.8925 37.0145 59.8005C36.9949 59.7084 36.9498 59.6237 36.8842 59.5562C36.8186 59.4887 36.7353 59.441 36.6439 59.4188L25.6627 56.7313C25.3502 56.6562 25.0439 56.8938 25.0439 57.2125L25.0002 68.525C25.0002 68.9438 25.4814 69.1813 25.8064 68.9188L29.3314 66.1625C34.1377 72.3062 41.6127 76.25 50.0127 76.25C64.3377 76.25 75.9814 64.7688 76.2502 50.5125C76.2518 50.4458 76.2401 50.3794 76.2157 50.3173C76.1914 50.2552 76.1548 50.1986 76.1082 50.1508C76.0616 50.1031 76.0059 50.0651 75.9444 50.0392C75.8829 50.0133 75.8169 50 75.7502 50Z" fill="#8A25DF"/>
</svg>
