<svg width="100" height="100" viewBox="0 0 100 100" fill="none" xmlns="http://www.w3.org/2000/svg">
<circle cx="50" cy="50" r="50" fill="#8A25DF" fill-opacity="0.05"/>
<path d="M49.8965 74.2196V73.2799L48.9586 73.2216C40.2597 72.6802 33.3447 65.4498 33.3447 56.6207V50.0001C33.3447 49.9428 33.3907 49.8966 33.4482 49.8966C33.5056 49.8966 33.5516 49.9428 33.5516 50.0001V56.6207C33.5516 65.6916 40.929 73.069 49.9999 73.069C59.0708 73.069 66.4482 65.6916 66.4482 56.6207V50.0001C66.4482 49.9428 66.4942 49.8966 66.5516 49.8966C66.6091 49.8966 66.6551 49.9428 66.6551 50.0001V56.6207C66.6551 65.4487 59.74 72.6802 51.0412 73.2216L50.1033 73.2799V74.2196V79.7932V80.7932H51.1033H56.6206C56.6781 80.7932 56.724 80.8393 56.724 80.8966C56.724 80.9539 56.6781 81.0001 56.6206 81.0001H43.3792C43.3217 81.0001 43.2758 80.9539 43.2758 80.8966C43.2758 80.8393 43.3217 80.7932 43.3792 80.7932H48.8965H49.8965V79.7932V74.2196Z" fill="#8A25DF" stroke="#8A25DF" stroke-width="2"/>
<path d="M60.3877 56.6207C60.3877 62.3466 55.7257 67.0086 49.9997 67.0086C44.2738 67.0086 39.6118 62.3466 39.6118 56.6207V30.1379C39.6118 24.412 44.2738 19.75 49.9997 19.75C55.7257 19.75 60.3877 24.412 60.3877 30.1379V56.6207Z" stroke="#8A25DF" stroke-width="3.5"/>
</svg>
