<svg width="559" height="752" viewBox="0 0 559 752" fill="none" xmlns="http://www.w3.org/2000/svg">
<rect x="134" y="539.132" width="300" height="300" rx="33" transform="rotate(-45 134 539.132)" fill="#005CFF"/>
<g filter="url(#filter0_di)">
<path fill-rule="evenodd" clip-rule="evenodd" d="M196.76 58.4429C174.761 54.5639 153.782 69.2531 149.903 91.2522L67.402 559.14C63.5229 581.139 78.2121 602.117 100.211 605.996L180.472 620.148L185.542 619.203L205.756 622.767L210.198 625.39L291.052 639.646C313.051 643.525 334.03 628.836 337.909 606.837L420.41 138.95C424.289 116.951 409.6 95.9724 387.601 92.0933L196.76 58.4429Z" fill="white"/>
</g>
<g filter="url(#filter1_i)">
<rect x="159.76" y="56.2098" width="267.435" height="547.548" rx="36.8252" transform="rotate(10 159.76 56.2098)" fill="white"/>
</g>
<path d="M140.607 130.071C140.723 129.415 141.349 128.976 142.005 129.092L143.194 129.302L139.525 150.11L138.336 149.9C137.68 149.784 137.241 149.158 137.357 148.501L140.607 130.071Z" fill="url(#paint0_linear)"/>
<path d="M395.847 292.161C395.732 292.818 395.105 293.256 394.449 293.14L393.26 292.931L405.839 221.588L407.028 221.798C407.685 221.914 408.123 222.54 408.008 223.197L395.847 292.161Z" fill="url(#paint1_linear)"/>
<path d="M133.583 169.904C133.699 169.247 134.325 168.809 134.982 168.925L136.171 169.134L129.776 205.4L128.587 205.19C127.931 205.075 127.492 204.448 127.608 203.792L133.583 169.904Z" fill="url(#paint2_linear)"/>
<path d="M125.617 215.088C125.732 214.431 126.359 213.992 127.015 214.108L128.204 214.318L121.81 250.584L120.621 250.374C119.964 250.258 119.525 249.632 119.641 248.975L125.617 215.088Z" fill="url(#paint3_linear)"/>
<rect x="270.798" y="90.501" width="37.4289" height="4.82953" rx="2.41477" transform="rotate(10 270.798 90.501)" fill="#2F559E" fill-opacity="0.1"/>
<path fill-rule="evenodd" clip-rule="evenodd" d="M355.919 104.897C356.209 103.255 357.774 102.159 359.416 102.449L361.2 102.763L383.791 106.747C397.253 109.121 406.242 121.958 403.869 135.42L321.472 602.713C319.099 616.175 306.261 625.164 292.799 622.79L104.336 589.559C90.8739 587.185 81.885 574.348 84.2588 560.886L166.655 93.5929C169.029 80.1308 181.866 71.1419 195.328 73.5157L219.109 77.7089L220.054 77.8754C221.502 78.1308 222.469 79.5122 222.214 80.9607L221.69 83.9334C220.382 91.3501 225.334 98.4227 232.751 99.7304L339.66 118.581C347.076 119.889 354.149 114.937 355.457 107.52L355.919 104.897Z" fill="#CAD2DD"/>
<g clip-path="url(#clip0)">
<rect x="170.481" y="70.0563" width="242" height="524.011" rx="27.328" transform="rotate(10 170.481 70.0563)" fill="#FAFAFA"/>
<rect x="224.261" y="321.357" width="1.952" height="52.0533" rx="0.976" transform="rotate(10 224.261 321.357)" fill="#005CFF"/>
<rect x="275.18" y="330.335" width="1.952" height="52.0533" rx="0.976" transform="rotate(10 275.18 330.335)" fill="#005CFF"/>
<rect width="1.952" height="52.0533" rx="0.976" transform="matrix(-0.984808 -0.173648 -0.173648 0.984808 220.416 320.679)" fill="#005CFF"/>
<rect width="1.952" height="52.0533" rx="0.976" transform="matrix(-0.984808 -0.173648 -0.173648 0.984808 271.335 329.657)" fill="#005CFF"/>
<rect x="228.897" y="328.781" width="1.952" height="39.04" rx="0.976" transform="rotate(10 228.897 328.781)" fill="#005CFF"/>
<rect x="279.816" y="337.76" width="1.952" height="39.04" rx="0.976" transform="rotate(10 279.816 337.76)" fill="#005CFF"/>
<rect width="1.952" height="39.04" rx="0.976" transform="matrix(-0.984808 -0.173648 -0.173648 0.984808 214.504 326.243)" fill="#005CFF"/>
<rect width="1.952" height="39.04" rx="0.976" transform="matrix(-0.984808 -0.173648 -0.173648 0.984808 191.436 322.176)" fill="#005CFF"/>
<rect width="1.952" height="39.04" rx="0.976" transform="matrix(-0.984808 -0.173648 -0.173648 0.984808 317.326 344.374)" fill="#005CFF"/>
<rect width="1.952" height="39.04" rx="0.976" transform="matrix(-0.984808 -0.173648 -0.173648 0.984808 265.423 335.222)" fill="#005CFF"/>
<rect x="233.535" y="336.206" width="1.952" height="26.0267" rx="0.976" transform="rotate(10 233.535 336.206)" fill="#005CFF"/>
<rect x="284.453" y="345.184" width="1.952" height="26.0267" rx="0.976" transform="rotate(10 284.453 345.184)" fill="#005CFF"/>
<rect width="1.952" height="26.0267" rx="0.976" transform="matrix(-0.984808 -0.173648 -0.173648 0.984808 207.607 331.634)" fill="#005CFF"/>
<rect width="1.952" height="26.0267" rx="0.976" transform="matrix(-0.984808 -0.173648 -0.173648 0.984808 183.554 327.393)" fill="#005CFF"/>
<rect width="1.952" height="26.0267" rx="0.976" transform="matrix(-0.984808 -0.173648 -0.173648 0.984808 310.429 349.765)" fill="#005CFF"/>
<rect width="1.952" height="26.0267" rx="0.976" transform="matrix(-0.984808 -0.173648 -0.173648 0.984808 258.525 340.613)" fill="#005CFF"/>
<rect x="239.867" y="334.019" width="1.952" height="32.5333" rx="0.976" transform="rotate(10 239.867 334.019)" fill="#005CFF"/>
<rect x="290.785" y="342.997" width="1.952" height="32.5333" rx="0.976" transform="rotate(10 290.785 342.997)" fill="#005CFF"/>
<rect width="1.952" height="32.5333" rx="0.976" transform="matrix(-0.984808 -0.173648 -0.173648 0.984808 202.405 327.413)" fill="#005CFF"/>
<rect width="1.952" height="32.5333" rx="0.976" transform="matrix(-0.984808 -0.173648 -0.173648 0.984808 178.352 323.172)" fill="#005CFF"/>
<rect width="1.952" height="32.5333" rx="0.976" transform="matrix(-0.984808 -0.173648 -0.173648 0.984808 305.227 345.544)" fill="#005CFF"/>
<rect width="1.952" height="32.5333" rx="0.976" transform="matrix(-0.984808 -0.173648 -0.173648 0.984808 253.323 336.392)" fill="#005CFF"/>
<rect x="243.939" y="344.648" width="1.952" height="13.0133" rx="0.976" transform="rotate(10 243.939 344.648)" fill="#005CFF"/>
<rect x="295.843" y="353.8" width="1.952" height="13.0133" rx="0.976" transform="rotate(10 295.843 353.8)" fill="#005CFF"/>
<rect width="1.952" height="13.0133" rx="0.976" transform="matrix(-0.984808 -0.173648 -0.173648 0.984808 194.943 336.008)" fill="#005CFF"/>
<rect width="1.952" height="13.0133" rx="0.976" transform="matrix(-0.984808 -0.173648 -0.173648 0.984808 320.833 358.206)" fill="#005CFF"/>
<rect width="1.952" height="13.0133" rx="0.976" transform="matrix(-0.984808 -0.173648 -0.173648 0.984808 170.891 331.767)" fill="#005CFF"/>
<path d="M234.143 271.245L235.592 263.033L236.537 263.199L235.232 270.604L239.349 271.33L239.207 272.138L234.143 271.245ZM240.313 272.333L241.336 266.531L242.271 266.696L241.248 272.497L240.313 272.333ZM241.677 264.058L242.819 264.259L242.632 265.321L241.49 265.119L241.677 264.058ZM245.008 273.244C244.032 273.072 243.303 272.685 242.822 272.085L243.256 271.448C243.521 271.741 243.805 271.973 244.108 272.146C244.419 272.311 244.775 272.43 245.175 272.5C245.613 272.578 245.957 272.563 246.206 272.456C246.463 272.343 246.617 272.144 246.668 271.86C246.708 271.629 246.663 271.435 246.532 271.277C246.403 271.111 246.169 270.955 245.83 270.808L244.89 270.405C244.425 270.211 244.082 269.953 243.862 269.628C243.649 269.306 243.577 268.952 243.645 268.567C243.704 268.229 243.849 267.949 244.078 267.728C244.309 267.499 244.602 267.341 244.959 267.253C245.315 267.165 245.72 267.161 246.174 267.241C246.581 267.313 246.954 267.446 247.292 267.641C247.631 267.835 247.901 268.077 248.104 268.367L247.673 268.992C247.436 268.713 247.182 268.493 246.909 268.334C246.644 268.169 246.355 268.058 246.039 268.003C245.624 267.929 245.287 267.953 245.028 268.074C244.776 268.196 244.626 268.396 244.577 268.672C244.535 268.911 244.571 269.111 244.685 269.274C244.807 269.438 245.019 269.587 245.321 269.719L246.258 270.134C246.784 270.346 247.15 270.609 247.356 270.923C247.571 271.23 247.643 271.588 247.571 271.995C247.483 272.495 247.209 272.859 246.748 273.087C246.288 273.315 245.708 273.367 245.008 273.244ZM248.801 268.609L248.931 267.87L252.657 268.527L252.527 269.265L248.801 268.609ZM251.757 273.494L251.617 274.29C251.479 274.306 251.344 274.309 251.211 274.302C251.083 274.303 250.943 274.29 250.789 274.263C250.251 274.168 249.847 273.939 249.579 273.574C249.318 273.211 249.241 272.722 249.35 272.107L250.324 266.582L251.317 266.412L250.307 272.144C250.252 272.452 250.253 272.698 250.307 272.882C250.37 273.067 250.472 273.208 250.613 273.305C250.756 273.393 250.924 273.454 251.116 273.488C251.231 273.509 251.337 273.519 251.432 273.52C251.527 273.521 251.635 273.512 251.757 273.494ZM257.634 274.673C257.338 274.867 256.978 274.998 256.554 275.066C256.137 275.135 255.721 275.133 255.306 275.06C254.706 274.954 254.208 274.743 253.812 274.428C253.423 274.113 253.149 273.712 252.99 273.224C252.839 272.73 252.818 272.171 252.928 271.548C253.034 270.948 253.242 270.442 253.553 270.029C253.864 269.616 254.245 269.319 254.697 269.137C255.157 268.956 255.656 268.913 256.195 269.008C256.71 269.099 257.132 269.292 257.46 269.588C257.79 269.876 258.014 270.249 258.131 270.706C258.257 271.164 258.267 271.689 258.163 272.281L258.132 272.454L253.749 271.681L253.857 271.07L257.709 271.749L257.334 272.123C257.469 271.449 257.426 270.906 257.205 270.495C256.992 270.084 256.616 269.832 256.078 269.737C255.517 269.638 255.039 269.76 254.646 270.103C254.262 270.439 254.008 270.958 253.884 271.657C253.751 272.411 253.816 273.009 254.079 273.452C254.35 273.896 254.808 274.175 255.454 274.289C255.792 274.349 256.125 274.352 256.451 274.298C256.787 274.238 257.117 274.118 257.442 273.938L257.634 274.673ZM259.034 275.634L259.77 271.458C259.817 271.189 259.857 270.919 259.889 270.647C259.93 270.369 259.955 270.092 259.964 269.816L260.852 269.972L260.745 271.19L260.613 271.262C260.857 270.822 261.189 270.515 261.608 270.343C262.028 270.164 262.484 270.117 262.976 270.204C264.368 270.449 264.929 271.337 264.659 272.867L264.016 276.512L263.082 276.348L263.717 272.749C263.812 272.211 263.773 271.799 263.601 271.515C263.431 271.224 263.115 271.037 262.653 270.956C262.115 270.861 261.655 270.95 261.274 271.224C260.893 271.498 260.653 271.915 260.554 272.477L259.968 275.798L259.034 275.634ZM265.781 276.823L266.804 271.022L267.738 271.186L266.715 276.988L265.781 276.823ZM267.145 268.549L268.286 268.75L268.099 269.811L266.957 269.61L267.145 268.549ZM268.529 277.308L269.265 273.133C269.313 272.863 269.352 272.593 269.385 272.321C269.426 272.043 269.451 271.766 269.46 271.49L270.348 271.647L270.24 272.864L270.109 272.936C270.353 272.496 270.684 272.19 271.103 272.018C271.523 271.838 271.979 271.792 272.471 271.878C273.863 272.124 274.424 273.012 274.154 274.542L273.512 278.187L272.577 278.022L273.212 274.423C273.307 273.885 273.268 273.474 273.096 273.19C272.926 272.898 272.61 272.711 272.149 272.63C271.61 272.535 271.151 272.625 270.769 272.898C270.388 273.172 270.148 273.59 270.049 274.151L269.463 277.473L268.529 277.308ZM277.371 281.519C276.495 281.365 275.769 281.03 275.193 280.517L275.489 279.784C275.814 280.055 276.13 280.266 276.436 280.415C276.743 280.564 277.1 280.675 277.508 280.746C278.061 280.844 278.507 280.768 278.844 280.518C279.188 280.278 279.411 279.865 279.514 279.281L279.791 277.712L279.944 277.584C279.798 277.876 279.604 278.119 279.364 278.315C279.132 278.504 278.863 278.635 278.557 278.707C278.251 278.78 277.917 278.785 277.556 278.721C277.04 278.63 276.608 278.431 276.258 278.124C275.917 277.81 275.672 277.418 275.525 276.948C275.386 276.479 275.367 275.957 275.469 275.38C275.571 274.803 275.767 274.319 276.058 273.926C276.357 273.535 276.72 273.254 277.146 273.083C277.582 272.906 278.057 272.863 278.572 272.954C279.111 273.049 279.541 273.264 279.862 273.598C280.193 273.926 280.382 274.34 280.428 274.839L280.312 274.688L280.532 273.442L281.466 273.607L280.451 279.363C280.298 280.231 279.96 280.846 279.437 281.205C278.921 281.566 278.233 281.671 277.371 281.519ZM277.878 277.969C278.44 278.068 278.911 277.961 279.291 277.648C279.68 277.328 279.933 276.841 280.048 276.187C280.163 275.534 280.092 274.994 279.834 274.568C279.585 274.136 279.18 273.87 278.619 273.771C278.05 273.671 277.567 273.78 277.17 274.098C276.782 274.41 276.53 274.893 276.415 275.547C276.298 276.208 276.369 276.752 276.627 277.178C276.892 277.605 277.309 277.869 277.878 277.969Z" fill="#100D44"/>
<circle cx="206.095" cy="572.525" r="130.133" transform="rotate(10 206.095 572.525)" fill="white" fill-opacity="0.45"/>
<circle cx="206.128" cy="566.584" r="81.3333" transform="rotate(10 206.128 566.584)" fill="white" fill-opacity="0.85"/>
<circle cx="208.839" cy="551.205" r="32.5333" transform="rotate(10 208.839 551.205)" fill="#005CFF"/>
<g clip-path="url(#clip1)">
<path d="M216.887 552.078C216.594 552.026 216.315 552.221 216.263 552.514L215.702 555.696C214.98 559.79 211.062 562.533 206.968 561.811C202.875 561.09 200.131 557.172 200.853 553.078L201.414 549.896C201.466 549.603 201.27 549.324 200.978 549.272C200.685 549.221 200.405 549.416 200.354 549.709L199.793 552.891C198.999 557.391 201.873 561.694 206.256 562.751L205.784 565.43L203.132 564.962C202.839 564.911 202.56 565.106 202.508 565.399C202.457 565.693 202.652 565.971 202.945 566.023L209.309 567.145C209.601 567.197 209.881 567.002 209.933 566.708C209.984 566.415 209.788 566.136 209.496 566.085L206.844 565.617L207.317 562.938C211.796 563.444 215.969 560.382 216.762 555.883L217.323 552.701C217.375 552.408 217.179 552.129 216.887 552.078Z" fill="white" stroke="white" stroke-width="0.650667"/>
<path d="M207.249 560.221C210.465 560.788 213.544 558.632 214.111 555.416L216.355 542.689C216.922 539.472 214.766 536.394 211.55 535.827C208.334 535.26 205.255 537.415 204.688 540.631L202.444 553.359C201.877 556.575 204.033 559.653 207.249 560.221ZM205.749 540.818C206.213 538.187 208.732 536.423 211.363 536.887C213.994 537.351 215.758 539.87 215.294 542.502L213.05 555.229C212.586 557.861 210.067 559.624 207.436 559.16C204.804 558.696 203.041 556.178 203.505 553.546L205.749 540.818Z" fill="white" stroke="white" stroke-width="0.650667"/>
</g>
<g clip-path="url(#clip2)">
<path d="M349.395 126.272L349.531 125.503C349.573 125.267 349.415 125.042 349.179 125C348.943 124.959 348.718 125.116 348.677 125.352L348.541 126.122C348.499 126.358 348.657 126.583 348.893 126.624C349.129 126.666 349.354 126.508 349.395 126.272Z" fill="#242122"/>
<path d="M351.104 126.573L351.526 124.18C351.568 123.944 351.41 123.719 351.174 123.678C350.938 123.636 350.713 123.794 350.672 124.03L350.25 126.423C350.208 126.659 350.366 126.884 350.602 126.925C350.838 126.967 351.063 126.809 351.104 126.573Z" fill="#242122"/>
<path d="M352.813 126.875L353.521 122.858C353.563 122.622 353.405 122.397 353.169 122.355C352.933 122.314 352.708 122.471 352.667 122.707L351.959 126.724C351.917 126.96 352.075 127.185 352.31 127.227C352.546 127.268 352.771 127.111 352.813 126.875Z" fill="#242122"/>
<path d="M354.522 127.176L355.516 121.535C355.558 121.3 355.4 121.075 355.164 121.033C354.929 120.991 354.704 121.149 354.662 121.385L353.667 127.025C353.626 127.261 353.783 127.486 354.019 127.528C354.255 127.57 354.48 127.412 354.522 127.176Z" fill="#242122"/>
<path d="M356.231 127.477L357.511 120.213C357.553 119.977 357.396 119.752 357.16 119.711C356.924 119.669 356.699 119.827 356.657 120.062L355.376 127.327C355.335 127.563 355.492 127.788 355.728 127.829C355.964 127.871 356.189 127.713 356.231 127.477Z" fill="#242122"/>
</g>
<path fill-rule="evenodd" clip-rule="evenodd" d="M376.142 124.398L375.169 130.239L387.569 132.292L388.543 126.451L376.142 124.398ZM376.312 123.426L388.698 125.476C389.231 125.564 389.586 126.07 389.497 126.606L389.334 127.582L390.288 127.74L389.639 131.634L388.686 131.476L388.523 132.453C388.435 132.982 387.931 133.352 387.4 133.264L375.014 131.214C374.481 131.125 374.125 130.62 374.215 130.084L375.189 124.237C375.277 123.708 375.781 123.338 376.312 123.426ZM376.934 125.529L384.565 126.793L383.916 130.687L376.285 129.423L376.934 125.529Z" fill="#242122"/>
<g clip-path="url(#clip3)">
<path d="M366.258 126.821C365.652 126.714 365.003 126.856 364.53 127.25C364.099 127.615 363.559 126.932 363.99 126.568C364.672 126.027 365.554 125.816 366.408 125.966C367.263 126.117 368.019 126.617 368.475 127.358C368.756 127.848 368.015 128.305 367.734 127.815C367.424 127.283 366.863 126.927 366.258 126.821ZM365.73 129.811C365.268 129.729 364.945 129.269 365.027 128.806C365.108 128.343 365.569 128.021 366.032 128.102C366.494 128.184 366.817 128.644 366.735 129.107C366.654 129.57 366.193 129.893 365.73 129.811ZM366.634 124.685C365.495 124.484 364.394 124.693 363.431 125.368C363.012 125.661 362.43 125.008 362.932 124.656C364.063 123.864 365.432 123.592 366.785 123.83C368.138 124.069 369.331 124.793 370.123 125.924C370.475 126.426 369.704 126.841 369.411 126.422C368.737 125.459 367.773 124.886 366.634 124.685ZM367.011 122.549C365.373 122.26 363.736 122.595 362.367 123.492C361.87 123.808 361.372 123.096 361.868 122.78C363.482 121.743 365.31 121.368 367.162 121.694C369.013 122.021 370.602 122.998 371.765 124.525C372.123 124.992 371.411 125.49 371.053 125.023C370.073 123.713 368.648 122.838 367.011 122.549Z" fill="#242122"/>
</g>
<path d="M185.398 91.8739C186.362 92.0439 187.049 92.4856 187.458 93.1992C187.875 93.914 187.983 94.8421 187.781 95.9835C187.64 96.7832 187.376 97.4414 186.989 97.9581C186.61 98.4692 186.138 98.8265 185.574 99.03C185.018 99.2279 184.401 99.2671 183.724 99.1478C183.376 99.0864 183.054 98.9943 182.758 98.8718C182.464 98.7423 182.216 98.5894 182.014 98.4129L182.545 97.6819C182.854 97.9689 183.295 98.1631 183.87 98.2643C184.615 98.3957 185.236 98.2691 185.734 97.8847C186.239 97.4947 186.57 96.8588 186.725 95.9771L186.771 95.7207C186.511 95.9922 186.186 96.1779 185.795 96.2781C185.405 96.3714 184.984 96.3783 184.533 96.2988C184.062 96.2156 183.654 96.0521 183.309 95.8081C182.971 95.5653 182.725 95.2612 182.571 94.8957C182.425 94.5246 182.39 94.1238 182.466 93.6932C182.546 93.2421 182.725 92.8649 183.004 92.5618C183.29 92.2598 183.64 92.0503 184.056 91.9332C184.472 91.8093 184.92 91.7896 185.398 91.8739ZM184.854 95.4991C185.175 95.5557 185.473 95.5448 185.748 95.4664C186.022 95.3879 186.247 95.2548 186.421 95.0671C186.602 94.8805 186.715 94.6573 186.761 94.3976C186.805 94.1447 186.777 93.9037 186.677 93.6745C186.584 93.4397 186.419 93.2379 186.181 93.0691C185.951 92.8946 185.655 92.7755 185.293 92.7116C184.821 92.6284 184.416 92.6874 184.077 92.8885C183.746 93.0908 183.543 93.4038 183.468 93.8275C183.393 94.2513 183.48 94.6156 183.73 94.9203C183.98 95.2182 184.355 95.4111 184.854 95.4991ZM189.515 95.8769C189.323 95.8431 189.171 95.7493 189.057 95.5953C188.944 95.4345 188.906 95.2516 188.942 95.0465C188.977 94.8483 189.074 94.6963 189.234 94.5906C189.395 94.478 189.571 94.4386 189.762 94.4723C189.954 94.506 190.103 94.5993 190.21 94.7521C190.317 94.9048 190.352 95.0837 190.316 95.2888C190.28 95.4938 190.181 95.6527 190.021 95.7653C189.868 95.8722 189.699 95.9094 189.515 95.8769ZM188.784 100.019C188.593 99.9852 188.44 99.8913 188.327 99.7373C188.214 99.5765 188.176 99.3936 188.212 99.1886C188.247 98.9903 188.344 98.8383 188.504 98.7326C188.665 98.62 188.841 98.5806 189.032 98.6143C189.223 98.6481 189.373 98.7413 189.48 98.8941C189.586 99.0468 189.622 99.2257 189.586 99.4308C189.55 99.6358 189.451 99.7947 189.29 99.9073C189.138 100.014 188.969 100.051 188.784 100.019ZM193.253 96.2929C194.278 96.4737 194.996 96.8011 195.405 97.275C195.823 97.7433 195.973 98.3124 195.855 98.9823C195.78 99.406 195.61 99.7707 195.345 100.076C195.088 100.376 194.736 100.589 194.291 100.715C193.854 100.835 193.339 100.843 192.744 100.738C192.238 100.649 191.763 100.488 191.318 100.254C190.874 100.014 190.522 99.7298 190.263 99.4022L190.877 98.6754C191.082 98.9512 191.363 99.1946 191.721 99.4056C192.08 99.6098 192.471 99.7492 192.895 99.824C193.435 99.9192 193.871 99.8799 194.205 99.7062C194.547 99.5268 194.753 99.2389 194.822 98.8425C194.898 98.4119 194.792 98.0583 194.502 97.7817C194.214 97.4983 193.673 97.2867 192.88 97.1469L191.25 96.8595L192.291 93.1739L196.341 93.888L196.184 94.78L192.995 94.2178L192.453 96.1519L193.253 96.2929ZM199.246 101.885C198.679 101.785 198.198 101.552 197.805 101.187C197.419 100.816 197.149 100.331 196.993 99.7327C196.838 99.1345 196.827 98.456 196.961 97.6973C197.095 96.9387 197.337 96.3048 197.688 95.7958C198.038 95.2867 198.457 94.9272 198.946 94.7173C199.442 94.5017 199.973 94.4439 200.541 94.544C201.101 94.6428 201.574 94.8777 201.96 95.2488C202.353 95.6142 202.628 96.096 202.783 96.6942C202.938 97.2925 202.949 97.9709 202.815 98.7296C202.682 99.4883 202.44 100.122 202.089 100.631C201.738 101.14 201.315 101.503 200.819 101.718C200.331 101.928 199.807 101.984 199.246 101.885ZM199.407 100.972C199.981 101.074 200.481 100.918 200.906 100.507C201.337 100.097 201.632 99.4442 201.79 98.5488C201.948 97.6534 201.894 96.9392 201.629 96.4061C201.37 95.8742 200.954 95.5577 200.38 95.4564C199.799 95.354 199.292 95.5079 198.861 95.918C198.436 96.3294 198.144 96.9827 197.987 97.8781C197.829 98.7735 197.879 99.4871 198.138 100.019C198.403 100.552 198.826 100.87 199.407 100.972Z" fill="#242122"/>
<path d="M186.094 171.595L187.542 163.383L188.487 163.55L187.039 171.762L186.094 171.595ZM180.234 170.562L181.682 162.35L182.617 162.515L181.169 170.727L180.234 170.562ZM181.338 166.868L181.478 166.072L187.43 167.121L187.289 167.917L181.338 166.868ZM188.95 172.099L189.973 166.297L190.907 166.462L189.884 172.264L188.95 172.099ZM190.314 163.824L191.456 164.026L191.268 165.087L190.127 164.885L190.314 163.824ZM191.787 173.967L191.408 173.555C191.655 173.369 191.829 173.189 191.931 173.017C192.033 172.845 192.1 172.662 192.134 172.47L192.379 172.703L191.537 172.555L191.746 171.367L192.934 171.576L192.786 172.418C192.731 172.726 192.627 173.005 192.472 173.255C192.323 173.514 192.095 173.752 191.787 173.967ZM196.056 175.469L196.2 174.65C196.662 174.818 197.035 174.904 197.32 174.907C197.604 174.917 197.824 174.817 197.98 174.607C198.134 174.404 198.252 174.076 198.332 173.622L199.757 165.537L200.703 165.704L199.275 173.801C199.163 174.439 198.983 174.919 198.736 175.24C198.488 175.569 198.147 175.746 197.715 175.773C197.28 175.808 196.727 175.706 196.056 175.469ZM203.21 174.697C202.518 174.575 202.029 174.29 201.743 173.843C201.465 173.398 201.392 172.798 201.525 172.045L202.159 168.446L203.094 168.611L202.463 172.186C202.371 172.709 202.411 173.113 202.583 173.397C202.755 173.681 203.06 173.861 203.498 173.939C204.013 174.03 204.458 173.937 204.831 173.662C205.205 173.387 205.44 172.973 205.538 172.419L206.115 169.144L207.05 169.308L206.027 175.11L205.116 174.949L205.337 173.692L205.488 173.647C205.253 174.082 204.93 174.385 204.518 174.559C204.115 174.733 203.679 174.779 203.21 174.697ZM207.828 175.428L209.325 166.939L210.259 167.103L208.762 175.592L207.828 175.428ZM210.576 175.912L211.599 170.111L212.533 170.275L211.51 176.077L210.576 175.912ZM211.94 167.638L213.082 167.839L212.895 168.9L211.753 168.699L211.94 167.638ZM215.536 176.87C215.021 176.779 214.588 176.58 214.238 176.273C213.897 175.959 213.658 175.56 213.522 175.076C213.394 174.586 213.384 174.037 213.491 173.429C213.598 172.822 213.799 172.31 214.095 171.894C214.39 171.479 214.752 171.178 215.181 170.992C215.618 170.807 216.09 170.76 216.598 170.849C217.129 170.943 217.555 171.153 217.878 171.479C218.201 171.806 218.385 172.223 218.431 172.73L218.276 172.798L218.534 171.333L219.457 171.496L218.434 177.298L217.511 177.135L217.776 175.636L217.902 175.729C217.686 176.191 217.37 176.519 216.955 176.716C216.54 176.912 216.067 176.964 215.536 176.87ZM215.857 176.13C216.426 176.23 216.898 176.115 217.274 175.785C217.65 175.447 217.902 174.921 218.028 174.205C218.154 173.49 218.093 172.913 217.846 172.473C217.606 172.034 217.206 171.765 216.644 171.666C216.075 171.566 215.594 171.687 215.2 172.03C214.816 172.367 214.561 172.889 214.437 173.596C214.312 174.303 214.373 174.877 214.621 175.317C214.876 175.759 215.288 176.029 215.857 176.13ZM220.24 177.616L220.977 173.441C221.024 173.172 221.064 172.901 221.096 172.629C221.137 172.351 221.162 172.074 221.171 171.798L222.059 171.955L221.952 173.173L221.82 173.245C222.064 172.804 222.396 172.498 222.814 172.326C223.235 172.146 223.691 172.1 224.183 172.187C225.575 172.432 226.136 173.32 225.866 174.85L225.223 178.495L224.289 178.33L224.923 174.731C225.018 174.193 224.98 173.782 224.808 173.498C224.637 173.206 224.321 173.02 223.86 172.938C223.322 172.844 222.862 172.933 222.481 173.207C222.099 173.48 221.859 173.898 221.76 174.459L221.175 177.781L220.24 177.616ZM229.199 179.279C228.684 179.188 228.251 178.989 227.901 178.682C227.56 178.368 227.321 177.969 227.185 177.485C227.057 176.995 227.047 176.446 227.154 175.838C227.261 175.231 227.462 174.719 227.757 174.304C228.053 173.888 228.415 173.587 228.844 173.401C229.281 173.216 229.753 173.169 230.261 173.258C230.791 173.352 231.218 173.562 231.541 173.889C231.864 174.215 232.048 174.632 232.094 175.14L231.939 175.207L232.197 173.743L233.12 173.905L232.097 179.707L231.174 179.544L231.439 178.045L231.565 178.138C231.349 178.6 231.033 178.929 230.618 179.125C230.203 179.321 229.73 179.373 229.199 179.279ZM229.52 178.539C230.089 178.639 230.561 178.524 230.937 178.194C231.313 177.856 231.565 177.33 231.691 176.615C231.817 175.899 231.756 175.322 231.509 174.882C231.269 174.443 230.868 174.174 230.307 174.075C229.738 173.975 229.257 174.096 228.863 174.439C228.479 174.776 228.224 175.298 228.1 176.005C227.975 176.713 228.036 177.286 228.284 177.726C228.539 178.168 228.951 178.439 229.52 178.539Z" fill="#333333"/>
<path d="M184.686 134.828C184.695 134.893 184.691 134.977 184.673 135.079C184.63 135.325 184.511 135.516 184.319 135.651C184.146 135.79 183.928 135.889 183.664 135.948C183.42 136.011 183.147 136.058 182.846 136.089C182.568 136.104 182.299 136.13 182.039 136.169L181.844 136.198C181.583 136.236 181.268 136.286 180.897 136.348C180.551 136.393 180.248 136.434 179.987 136.473L179.725 136.522C179.485 136.564 179.18 136.616 178.81 136.678C178.443 136.719 178.129 136.759 177.869 136.797L177.643 136.821C177.382 136.859 177.069 136.899 176.702 136.94C176.335 136.981 176.023 137.011 175.767 137.029L175.51 137.047C175.444 137.057 175.371 137.054 175.289 137.04C174.981 136.986 174.853 136.815 174.903 136.528C174.911 136.487 174.946 136.409 175.008 136.293L175.144 136.063C175.245 135.848 175.378 135.576 175.542 135.245C175.726 134.918 175.89 134.651 176.032 134.444L176.179 134.152C176.304 133.921 176.447 133.65 176.607 133.34C176.771 133.009 176.916 132.728 177.041 132.497L177.24 132.088C177.366 131.856 177.51 131.575 177.674 131.245C177.838 130.914 177.981 130.643 178.103 130.432L178.297 130.054C178.422 129.823 178.567 129.541 178.731 129.211C178.915 128.884 179.068 128.615 179.19 128.404L179.414 128.031C179.56 127.803 179.703 127.532 179.843 127.219C180.007 126.888 180.152 126.607 180.277 126.376L180.465 126.028C180.591 125.797 180.735 125.516 180.899 125.185C181.063 124.855 181.206 124.584 181.328 124.373L181.527 123.964C181.632 123.729 181.765 123.456 181.925 123.146C182.109 122.819 182.275 122.542 182.421 122.314L182.614 121.936C182.76 121.708 182.913 121.439 183.074 121.129C183.238 120.798 183.393 120.519 183.538 120.291L183.898 119.688C184.048 119.44 184.194 119.328 184.338 119.354C184.481 119.379 184.585 119.513 184.647 119.757L184.687 119.891C184.77 120.138 184.865 120.44 184.971 120.797C185.078 121.154 185.162 121.455 185.225 121.698L185.279 121.93C185.362 122.177 185.437 122.476 185.502 122.825C185.587 123.179 185.66 123.487 185.719 123.752L185.793 124.05C185.835 124.29 185.887 124.595 185.949 124.966C186.035 125.319 186.109 125.617 186.172 125.861L186.246 126.16C186.309 126.403 186.383 126.702 186.468 127.055C186.575 127.412 186.669 127.714 186.753 127.962L186.858 128.265C186.92 128.509 187.005 128.809 187.111 129.166C187.217 129.523 187.302 129.824 187.364 130.067L187.439 130.366C187.501 130.609 187.576 130.908 187.661 131.261C187.768 131.618 187.862 131.921 187.946 132.168L188.076 132.508C188.159 132.755 188.244 133.055 188.329 133.409C188.415 133.762 188.487 134.071 188.546 134.335L188.61 134.695C188.673 134.939 188.735 135.246 188.796 135.616C188.882 135.969 188.966 136.27 189.05 136.517L189.144 136.882C189.227 137.13 189.312 137.43 189.397 137.783C189.503 138.14 189.588 138.441 189.651 138.684L189.725 138.983C189.784 139.247 189.856 139.556 189.942 139.909C190.048 140.266 190.143 140.568 190.226 140.816L190.326 141.15C190.366 141.284 190.373 141.423 190.348 141.566C190.283 141.935 190.061 142.171 189.684 142.274L189.519 142.308C189.385 142.348 189.247 142.355 189.103 142.33C188.939 142.301 188.784 142.221 188.638 142.089C188.492 141.958 188.393 141.803 188.339 141.625L188.24 141.29C188.177 141.046 188.091 140.756 187.981 140.42C187.875 140.063 187.792 139.752 187.733 139.488L187.65 139.061C187.587 138.817 187.513 138.519 187.427 138.165C187.345 137.792 187.273 137.483 187.21 137.239L187.065 136.801C186.982 136.554 186.897 136.254 186.812 135.9C186.726 135.547 186.652 135.248 186.589 135.005L186.48 134.542C186.418 134.298 186.323 133.996 186.196 133.635C186.09 133.278 186.006 132.978 185.943 132.734L185.798 132.297C185.715 132.049 185.618 131.757 185.508 131.421C185.402 131.064 185.318 130.764 185.255 130.52L185.101 129.954C185.038 129.71 184.964 129.412 184.878 129.058C184.793 128.705 184.72 128.396 184.661 128.132L184.563 127.607C184.501 127.364 184.426 127.065 184.341 126.712C184.255 126.358 184.183 126.05 184.124 125.785L183.99 125.286C183.903 125.059 183.808 124.937 183.706 124.919C183.541 124.89 183.407 124.993 183.302 125.228L183.15 125.55C183.025 125.782 182.87 126.061 182.685 126.388C182.521 126.719 182.368 126.988 182.226 127.195L182.007 127.537C181.865 127.744 181.712 128.013 181.548 128.344C181.384 128.674 181.239 128.956 181.113 129.187L180.884 129.591C180.738 129.819 180.593 130.1 180.45 130.434C180.327 130.772 180.203 131.056 180.077 131.288L179.884 131.666C179.758 131.898 179.624 132.18 179.48 132.515C179.337 132.849 179.194 133.119 179.052 133.327L178.827 133.7C178.796 133.758 178.766 133.805 178.739 133.843C178.731 133.884 178.724 133.925 178.717 133.966C178.674 134.212 178.775 134.356 179.021 134.4C179.082 134.411 179.178 134.406 179.309 134.387L179.406 134.373C179.667 134.334 179.979 134.304 180.342 134.284C180.708 134.243 181.02 134.213 181.277 134.195L181.472 134.166C181.729 134.148 182.041 134.118 182.408 134.077C182.774 134.036 183.08 133.984 183.323 133.922L183.683 133.858C183.813 133.839 183.92 133.836 184.002 133.851C184.412 133.923 184.632 134.173 184.662 134.602L184.686 134.828Z" fill="#456AE5"/>
<path d="M178.637 213.887L180.085 205.675L181.03 205.841L179.582 214.054L178.637 213.887ZM172.777 212.854L174.225 204.641L175.16 204.806L173.712 213.018L172.777 212.854ZM173.881 209.159L174.021 208.363L179.973 209.413L179.832 210.209L173.881 209.159ZM183.878 214.894C183.324 214.797 182.861 214.588 182.489 214.269C182.125 213.951 181.867 213.549 181.715 213.062C181.572 212.569 181.555 212.015 181.663 211.4C181.77 210.792 181.975 210.281 182.278 209.867C182.589 209.454 182.97 209.16 183.421 208.986C183.879 208.813 184.386 208.776 184.939 208.873C185.493 208.971 185.952 209.179 186.316 209.497C186.688 209.816 186.945 210.222 187.088 210.715C187.239 211.209 187.261 211.76 187.153 212.368C187.045 212.983 186.835 213.497 186.525 213.91C186.223 214.317 185.843 214.606 185.384 214.779C184.933 214.953 184.431 214.992 183.878 214.894ZM184.014 214.121C184.583 214.222 185.054 214.111 185.428 213.788C185.811 213.459 186.067 212.929 186.196 212.199C186.322 211.484 186.262 210.906 186.014 210.466C185.767 210.026 185.362 209.757 184.801 209.658C184.24 209.559 183.764 209.673 183.373 210C182.99 210.329 182.735 210.851 182.609 211.566C182.48 212.297 182.536 212.882 182.776 213.32C183.024 213.753 183.437 214.02 184.014 214.121ZM189.583 215.817L188.46 209.637L189.441 209.81L190.328 215.235L190.028 215.182L192.774 210.398L193.593 210.542L194.515 215.973L194.215 215.92L196.938 211.132L197.861 211.294L194.692 216.718L193.793 216.559L192.799 210.997L193.307 211.086L190.482 215.976L189.583 215.817ZM201.058 217.84L201.794 213.665C201.842 213.396 201.881 213.125 201.913 212.853C201.954 212.575 201.98 212.298 201.989 212.022L202.877 212.179L202.769 213.397L202.639 213.457C202.858 213.028 203.158 212.72 203.54 212.534C203.929 212.349 204.358 212.297 204.827 212.38C205.389 212.479 205.799 212.694 206.057 213.025C206.324 213.358 206.449 213.816 206.433 214.4L206.183 214.201C206.389 213.754 206.701 213.424 207.119 213.212C207.544 213.002 208.018 212.943 208.541 213.035C209.179 213.148 209.626 213.425 209.881 213.866C210.138 214.3 210.198 214.901 210.063 215.67L209.42 219.315L208.486 219.15L209.12 215.551C209.215 215.013 209.188 214.604 209.039 214.324C208.892 214.036 208.611 213.856 208.195 213.783C207.711 213.697 207.297 213.795 206.954 214.075C206.619 214.357 206.402 214.783 206.301 215.352L205.718 218.662L204.783 218.497L205.418 214.899C205.513 214.36 205.482 213.95 205.325 213.669C205.178 213.382 204.897 213.201 204.481 213.128C203.989 213.041 203.572 213.138 203.229 213.418C202.894 213.7 202.676 214.126 202.576 214.695L201.992 218.005L201.058 217.84ZM213.407 220.101C212.892 220.01 212.459 219.811 212.109 219.503C211.768 219.19 211.529 218.791 211.392 218.307C211.265 217.816 211.255 217.268 211.362 216.66C211.469 216.053 211.67 215.541 211.965 215.125C212.261 214.71 212.623 214.409 213.052 214.223C213.489 214.038 213.961 213.991 214.469 214.08C214.999 214.174 215.426 214.384 215.749 214.71C216.072 215.037 216.256 215.454 216.301 215.961L216.147 216.029L216.405 214.564L217.328 214.727L216.305 220.529L215.382 220.366L215.646 218.867L215.773 218.96C215.557 219.422 215.241 219.75 214.826 219.947C214.41 220.143 213.938 220.195 213.407 220.101ZM213.728 219.361C214.297 219.461 214.769 219.346 215.144 219.016C215.521 218.678 215.773 218.151 215.899 217.436C216.025 216.721 215.964 216.144 215.717 215.704C215.477 215.265 215.076 214.996 214.515 214.897C213.946 214.797 213.465 214.918 213.071 215.261C212.687 215.597 212.432 216.119 212.307 216.827C212.183 217.534 212.244 218.108 212.492 218.548C212.747 218.99 213.159 219.26 213.728 219.361ZM217.373 223.417L217.305 222.655C217.673 222.633 217.987 222.585 218.246 222.512C218.511 222.448 218.74 222.342 218.932 222.193C219.133 222.046 219.32 221.837 219.495 221.567L220.014 220.778L220.273 220.527L223.298 215.78L224.232 215.944L220.405 221.799C220.115 222.231 219.815 222.563 219.504 222.793C219.193 223.032 218.859 223.195 218.502 223.283C218.154 223.372 217.777 223.417 217.373 223.417ZM219.904 221.472L218.373 214.911L219.353 215.084L220.549 220.575L219.904 221.472ZM227.361 222.478L228.809 214.266L229.755 214.433L228.307 222.645L227.361 222.478ZM233.227 223.513L234.724 215.023L235.658 215.188L234.977 219.052L234.807 219.141C235.051 218.7 235.382 218.394 235.801 218.222C236.221 218.043 236.677 217.996 237.17 218.083C238.561 218.328 239.122 219.216 238.852 220.746L238.21 224.391L237.276 224.226L237.91 220.628C238.005 220.09 237.966 219.678 237.795 219.394C237.624 219.103 237.308 218.916 236.847 218.835C236.308 218.74 235.849 218.829 235.467 219.103C235.086 219.377 234.846 219.794 234.747 220.355L234.161 223.677L233.227 223.513ZM244.848 224.848C244.552 225.042 244.192 225.172 243.768 225.24C243.351 225.31 242.936 225.308 242.52 225.234C241.921 225.129 241.423 224.918 241.026 224.602C240.638 224.288 240.364 223.887 240.204 223.399C240.053 222.905 240.033 222.346 240.143 221.723C240.248 221.123 240.457 220.617 240.767 220.204C241.078 219.791 241.459 219.493 241.912 219.312C242.372 219.131 242.871 219.088 243.409 219.183C243.924 219.274 244.346 219.467 244.674 219.763C245.004 220.051 245.228 220.424 245.346 220.88C245.471 221.339 245.481 221.864 245.377 222.456L245.346 222.629L240.964 221.856L241.071 221.245L244.924 221.924L244.549 222.298C244.683 221.624 244.64 221.081 244.419 220.67C244.206 220.259 243.831 220.007 243.292 219.912C242.731 219.813 242.254 219.935 241.86 220.278C241.476 220.614 241.222 221.132 241.099 221.832C240.966 222.586 241.031 223.184 241.293 223.627C241.564 224.071 242.022 224.35 242.668 224.464C243.007 224.523 243.339 224.526 243.666 224.473C244.001 224.413 244.331 224.293 244.657 224.113L244.848 224.848ZM246.248 225.808L247.745 217.319L248.679 217.484L247.182 225.973L246.248 225.808ZM248.557 228.784L249.733 222.118C249.78 221.849 249.82 221.578 249.852 221.306C249.893 221.028 249.918 220.751 249.927 220.475L250.815 220.632L250.707 221.85L250.585 222.006C250.801 221.545 251.116 221.216 251.532 221.02C251.947 220.823 252.416 220.771 252.939 220.864C253.446 220.953 253.87 221.159 254.21 221.48C254.557 221.803 254.798 222.21 254.934 222.702C255.077 223.195 255.095 223.745 254.987 224.353C254.88 224.96 254.675 225.471 254.372 225.885C254.078 226.293 253.718 226.586 253.29 226.765C252.863 226.935 252.392 226.975 251.877 226.884C251.354 226.792 250.931 226.583 250.608 226.256C250.285 225.93 250.101 225.513 250.056 225.005L250.203 224.912L249.491 228.949L248.557 228.784ZM251.84 226.081C252.402 226.18 252.874 226.065 253.257 225.736C253.64 225.407 253.894 224.889 254.019 224.182C254.143 223.474 254.083 222.897 253.837 222.449C253.592 221.994 253.189 221.716 252.627 221.617C252.051 221.516 251.575 221.63 251.199 221.96C250.824 222.29 250.573 222.813 250.447 223.528C250.321 224.243 250.377 224.824 250.616 225.27C250.855 225.709 251.264 225.979 251.84 226.081ZM258.181 230.612L258.113 229.851C258.482 229.829 258.796 229.781 259.054 229.708C259.319 229.643 259.548 229.537 259.741 229.389C259.941 229.242 260.129 229.033 260.303 228.762L260.823 227.974L261.081 227.722L264.106 222.975L265.041 223.14L261.214 228.994C260.923 229.427 260.623 229.758 260.313 229.989C260.001 230.228 259.667 230.391 259.311 230.478C258.962 230.568 258.586 230.612 258.181 230.612ZM260.712 228.668L259.181 222.107L260.162 222.28L261.358 227.771L260.712 228.668ZM267.364 229.615C266.811 229.517 266.348 229.309 265.976 228.99C265.612 228.672 265.354 228.27 265.202 227.783C265.059 227.29 265.042 226.736 265.15 226.121C265.257 225.513 265.462 225.002 265.765 224.588C266.076 224.175 266.457 223.881 266.908 223.707C267.366 223.534 267.872 223.497 268.426 223.594C268.98 223.692 269.439 223.9 269.803 224.218C270.175 224.537 270.432 224.943 270.575 225.436C270.726 225.93 270.747 226.481 270.64 227.089C270.532 227.704 270.322 228.218 270.012 228.631C269.71 229.038 269.33 229.327 268.871 229.5C268.42 229.674 267.918 229.713 267.364 229.615ZM267.501 228.842C268.07 228.943 268.541 228.832 268.915 228.509C269.298 228.18 269.554 227.65 269.683 226.92C269.809 226.205 269.748 225.627 269.501 225.187C269.253 224.747 268.849 224.478 268.288 224.379C267.726 224.28 267.25 224.394 266.86 224.721C266.477 225.05 266.222 225.572 266.096 226.287C265.967 227.018 266.023 227.603 266.262 228.041C266.511 228.474 266.924 228.741 267.501 228.842ZM273.619 230.718C272.927 230.596 272.438 230.312 272.152 229.865C271.874 229.419 271.801 228.82 271.934 228.066L272.568 224.467L273.503 224.632L272.872 228.208C272.78 228.731 272.82 229.134 272.992 229.418C273.164 229.702 273.469 229.883 273.907 229.96C274.422 230.051 274.867 229.959 275.24 229.684C275.614 229.409 275.849 228.994 275.947 228.441L276.525 225.165L277.459 225.33L276.436 231.131L275.525 230.971L275.746 229.714L275.897 229.669C275.662 230.103 275.339 230.407 274.928 230.58C274.524 230.755 274.088 230.801 273.619 230.718ZM281.318 226.771L281.448 226.033L285.174 226.69L285.044 227.428L281.318 226.771ZM284.274 231.657L284.134 232.453C283.996 232.469 283.861 232.472 283.728 232.465C283.601 232.466 283.46 232.453 283.306 232.426C282.768 232.331 282.365 232.101 282.096 231.737C281.835 231.374 281.758 230.885 281.867 230.269L282.841 224.745L283.834 224.575L282.824 230.307C282.769 230.615 282.77 230.861 282.824 231.045C282.887 231.23 282.989 231.371 283.13 231.467C283.273 231.556 283.441 231.617 283.633 231.651C283.749 231.672 283.854 231.682 283.949 231.683C284.044 231.684 284.152 231.675 284.274 231.657ZM287.662 233.194C287.108 233.096 286.645 232.888 286.273 232.569C285.909 232.251 285.651 231.849 285.499 231.362C285.356 230.869 285.339 230.315 285.447 229.7C285.554 229.092 285.76 228.581 286.063 228.167C286.373 227.754 286.754 227.46 287.205 227.286C287.664 227.113 288.17 227.076 288.723 227.173C289.277 227.271 289.736 227.479 290.1 227.797C290.472 228.116 290.729 228.522 290.872 229.015C291.023 229.509 291.045 230.06 290.938 230.668C290.829 231.283 290.62 231.797 290.309 232.21C290.007 232.617 289.627 232.906 289.168 233.079C288.718 233.253 288.215 233.292 287.662 233.194ZM287.798 232.421C288.367 232.522 288.838 232.411 289.212 232.088C289.596 231.759 289.851 231.229 289.98 230.499C290.106 229.784 290.046 229.206 289.798 228.766C289.551 228.326 289.146 228.057 288.585 227.958C288.024 227.859 287.548 227.973 287.157 228.3C286.774 228.629 286.519 229.151 286.393 229.866C286.264 230.597 286.32 231.182 286.56 231.62C286.808 232.053 287.221 232.32 287.798 232.421ZM296.987 234.755L296.064 234.592L296.339 233.035L296.455 233.187C296.239 233.648 295.923 233.977 295.508 234.173C295.093 234.37 294.62 234.421 294.089 234.327C293.582 234.238 293.154 234.036 292.805 233.72C292.465 233.399 292.228 232.992 292.092 232.501C291.958 232.001 291.945 231.448 292.052 230.84C292.159 230.233 292.356 229.725 292.642 229.315C292.936 228.907 293.297 228.614 293.725 228.436C294.16 228.259 294.636 228.216 295.151 228.307C295.681 228.4 296.107 228.614 296.429 228.948C296.752 229.275 296.937 229.688 296.984 230.188L296.813 230.277L297.55 226.101L298.484 226.266L296.987 234.755ZM294.41 233.587C294.971 233.686 295.44 233.571 295.815 233.24C296.199 232.904 296.455 232.378 296.581 231.663C296.706 230.955 296.648 230.382 296.408 229.944C296.17 229.497 295.766 229.224 295.197 229.123C294.628 229.023 294.148 229.137 293.757 229.464C293.374 229.793 293.121 230.307 292.998 231.007C292.872 231.722 292.931 232.308 293.176 232.763C293.43 233.212 293.841 233.487 294.41 233.587ZM301.005 235.547C300.49 235.456 300.057 235.257 299.707 234.949C299.366 234.635 299.127 234.237 298.991 233.753C298.863 233.262 298.853 232.713 298.96 232.106C299.067 231.499 299.268 230.987 299.563 230.571C299.859 230.156 300.221 229.855 300.65 229.669C301.087 229.484 301.559 229.437 302.067 229.526C302.597 229.62 303.024 229.83 303.347 230.156C303.67 230.483 303.854 230.9 303.9 231.407L303.745 231.475L304.003 230.01L304.926 230.173L303.903 235.975L302.98 235.812L303.245 234.312L303.371 234.406C303.155 234.867 302.839 235.196 302.424 235.393C302.009 235.589 301.536 235.64 301.005 235.547ZM301.326 234.807C301.895 234.907 302.367 234.792 302.742 234.462C303.119 234.124 303.371 233.597 303.497 232.882C303.623 232.167 303.562 231.59 303.315 231.149C303.075 230.711 302.674 230.442 302.113 230.343C301.544 230.243 301.063 230.364 300.669 230.707C300.285 231.043 300.03 231.565 299.906 232.273C299.781 232.98 299.842 233.554 300.09 233.994C300.345 234.435 300.757 234.706 301.326 234.807ZM304.971 238.863L304.903 238.101C305.271 238.079 305.585 238.031 305.844 237.958C306.109 237.894 306.338 237.787 306.53 237.639C306.731 237.492 306.918 237.283 307.093 237.013L307.612 236.224L307.871 235.973L310.896 231.226L311.83 231.39L308.003 237.245C307.713 237.677 307.413 238.009 307.102 238.239C306.791 238.478 306.457 238.641 306.1 238.729C305.752 238.818 305.375 238.862 304.971 238.863ZM307.502 236.918L305.971 230.357L306.951 230.53L308.148 236.021L307.502 236.918ZM313.127 229.478C313.407 229.377 313.695 229.317 313.991 229.298C314.296 229.28 314.579 229.294 314.84 229.34C315.286 229.419 315.661 229.564 315.964 229.776C316.276 229.99 316.5 230.247 316.637 230.549C316.774 230.851 316.81 231.186 316.745 231.555C316.683 231.909 316.558 232.212 316.371 232.464C316.191 232.718 315.976 232.946 315.727 233.148C315.486 233.343 315.237 233.541 314.98 233.742C314.73 233.943 314.504 234.169 314.302 234.419C314.1 234.661 313.953 234.956 313.86 235.304L313.789 235.506L313.235 235.408L313.286 235.12C313.356 234.72 313.476 234.38 313.644 234.101C313.82 233.822 314.017 233.58 314.236 233.373C314.455 233.165 314.672 232.97 314.887 232.786C315.103 232.594 315.289 232.393 315.445 232.182C315.609 231.973 315.716 231.727 315.766 231.442C315.824 231.111 315.755 230.83 315.558 230.597C315.361 230.364 315.059 230.212 314.652 230.14C314.398 230.095 314.125 230.09 313.833 230.126C313.551 230.156 313.264 230.228 312.975 230.343L313.127 229.478ZM312.545 237.499L312.755 236.31L313.943 236.52L313.733 237.708L312.545 237.499Z" fill="#333333"/>
<path d="M165.07 190.672L344.489 222.308C351.567 223.556 356.293 230.306 355.045 237.384L353.915 243.791C352.667 250.869 345.918 255.595 338.84 254.347L172.237 224.971C165.159 223.723 160.433 216.973 161.681 209.895L165.07 190.672Z" stroke="#E5E5E5" stroke-width="0.650667"/>
<path d="M172.527 148.38L239.169 160.131C246.246 161.379 250.973 168.128 249.725 175.206L248.595 181.614C247.347 188.692 240.597 193.418 233.519 192.17L179.694 182.679C172.616 181.431 167.89 174.681 169.138 167.604L172.527 148.38Z" stroke="#E5E5E5" stroke-width="0.650667"/>
</g>
<defs>
<filter id="filter0_di" x="0.00876617" y="0.105522" width="487.793" height="715.989" filterUnits="userSpaceOnUse" color-interpolation-filters="sRGB">
<feFlood flood-opacity="0" result="BackgroundImageFix"/>
<feColorMatrix in="SourceAlpha" type="matrix" values="0 0 0 0 0 0 0 0 0 0 0 0 0 0 0 0 0 0 127 0"/>
<feOffset dy="9.05537"/>
<feGaussianBlur stdDeviation="30.1846"/>
<feColorMatrix type="matrix" values="0 0 0 0 0 0 0 0 0 0 0 0 0 0 0 0 0 0 0.15 0"/>
<feBlend mode="normal" in2="BackgroundImageFix" result="effect1_dropShadow"/>
<feBlend mode="normal" in="SourceGraphic" in2="effect1_dropShadow" result="shape"/>
<feColorMatrix in="SourceAlpha" type="matrix" values="0 0 0 0 0 0 0 0 0 0 0 0 0 0 0 0 0 0 127 0" result="hardAlpha"/>
<feOffset dy="2.41477"/>
<feGaussianBlur stdDeviation="4.22584"/>
<feComposite in2="hardAlpha" operator="arithmetic" k2="-1" k3="1"/>
<feColorMatrix type="matrix" values="0 0 0 0 0.756863 0 0 0 0 0.827451 0 0 0 0 0.909804 0 0 0 1 0"/>
<feBlend mode="normal" in2="shape" result="effect2_innerShadow"/>
</filter>
<filter id="filter1_i" x="64.6787" y="56.2098" width="358.453" height="588.084" filterUnits="userSpaceOnUse" color-interpolation-filters="sRGB">
<feFlood flood-opacity="0" result="BackgroundImageFix"/>
<feBlend mode="normal" in="SourceGraphic" in2="BackgroundImageFix" result="shape"/>
<feColorMatrix in="SourceAlpha" type="matrix" values="0 0 0 0 0 0 0 0 0 0 0 0 0 0 0 0 0 0 127 0" result="hardAlpha"/>
<feOffset dy="2.41477"/>
<feGaussianBlur stdDeviation="24.1477"/>
<feComposite in2="hardAlpha" operator="arithmetic" k2="-1" k3="1"/>
<feColorMatrix type="matrix" values="0 0 0 0 0.7553 0 0 0 0 0.826462 0 0 0 0 0.91 0 0 0 1 0"/>
<feBlend mode="normal" in2="shape" result="effect1_innerShadow"/>
</filter>
<linearGradient id="paint0_linear" x1="138.877" y1="139.881" x2="141.25" y2="140.327" gradientUnits="userSpaceOnUse">
<stop stop-color="#E9F0F7"/>
<stop offset="1" stop-color="#C7CFD9"/>
</linearGradient>
<linearGradient id="paint1_linear" x1="402.287" y1="255.64" x2="399.91" y2="255.213" gradientUnits="userSpaceOnUse">
<stop stop-color="#E9F0F7"/>
<stop offset="1" stop-color="#C7CFD9"/>
</linearGradient>
<linearGradient id="paint2_linear" x1="130.386" y1="188.037" x2="132.764" y2="188.456" gradientUnits="userSpaceOnUse">
<stop stop-color="#E9F0F7"/>
<stop offset="1" stop-color="#C7CFD9"/>
</linearGradient>
<linearGradient id="paint3_linear" x1="122.438" y1="233.114" x2="124.816" y2="233.533" gradientUnits="userSpaceOnUse">
<stop stop-color="#E9F0F7"/>
<stop offset="1" stop-color="#C7CFD9"/>
</linearGradient>
<clipPath id="clip0">
<rect x="170.481" y="70.0563" width="242" height="524.011" rx="27.328" transform="rotate(10 170.481 70.0563)" fill="white"/>
</clipPath>
<clipPath id="clip1">
<rect width="31.232" height="31.232" fill="white" transform="translate(196.172 533.115) rotate(10)"/>
</clipPath>
<clipPath id="clip2">
<rect width="10.4107" height="10.4107" fill="white" transform="translate(348.767 117.35) rotate(10)"/>
</clipPath>
<clipPath id="clip3">
<rect width="10.4107" height="10.4107" fill="white" transform="translate(362.224 119.722) rotate(10)"/>
</clipPath>
</defs>
</svg>
