<svg width="36" height="36" viewBox="0 0 36 36" fill="none" xmlns="http://www.w3.org/2000/svg">
<rect width="36" height="36" rx="18" fill="white"/>
<path d="M25.1016 14.4326C25.1016 14.5967 25.1016 14.7607 25.1016 14.9014C25.1016 19.7529 21.3984 25.3545 14.6484 25.3545C12.5625 25.3545 10.6406 24.7451 9 23.7139C9.28125 23.7373 9.58594 23.7607 9.86719 23.7607C11.5781 23.7607 13.1719 23.1748 14.4375 22.1904C12.8203 22.167 11.4609 21.0889 11.0156 19.6357C11.25 19.6826 11.4609 19.7061 11.7187 19.7061C12.0469 19.7061 12.375 19.6592 12.6797 19.5654C10.9922 19.2373 9.72656 17.7607 9.72656 15.9795C9.72656 15.9561 9.72656 15.9561 9.72656 15.9326C10.2187 16.2139 10.7812 16.3779 11.3906 16.4014C10.4062 15.7451 9.75 14.6201 9.75 13.3311C9.75 12.6514 9.9375 12.0186 10.2422 11.4795C12.0469 13.7061 14.7656 15.1592 17.8125 15.3232C17.7422 15.0654 17.7187 14.7607 17.7187 14.4795C17.7187 12.4404 19.3594 10.7998 21.3984 10.7998C22.4531 10.7998 23.4141 11.2451 24.0703 11.9482C24.9141 11.7842 25.6875 11.4795 26.4141 11.0576C26.1328 11.9248 25.5469 12.6279 24.7969 13.0967C25.5469 13.0029 26.25 12.8154 26.9062 12.5107C26.4375 13.2607 25.8281 13.917 25.1016 14.4326Z" fill="#333333"/>
</svg>
